<svg width="295" height="132" xmlns="http://www.w3.org/2000/svg" xmlns:xlink="http://www.w3.org/1999/xlink" xml:space="preserve" overflow="hidden"><g transform="translate(-985 0)"><g><g><g><g><path d="M31.944 48.9427C34.408 50.4387 37.2191 50.0867 38.28 48.1849 39.3458 46.2733 38.2849 43.4231 35.8404 41.8049 33.3276 40.1329 30.3307 40.4018 29.2307 42.4502 28.1453 44.4791 29.3871 47.4027 31.944 48.9427M61.116 44.0733C61.116 44.0733 61.0573 44.0587 61.0573 44.0587 63.1644 43.1591 67.4715 43.4573 70.9964 47.6764 71.7591 48.7227 73.0107 49.1724 74.0471 48.6933 75.2596 48.136 75.7484 46.4982 75.1373 45.0071 74.5067 43.4867 72.9715 42.6849 71.7004 43.2422 71.6564 43.2618 71.6173 43.2813 71.5733 43.3009 68.3907 44.3911 64.2498 42.3818 61.3751 38.5244 61.3164 38.4316 61.2529 38.3436 61.1844 38.2604 61.1844 38.2604 61.1844 38.2556 61.1844 38.2556 60.0893 36.8573 58.4369 36.2267 57.0827 36.6911 57.0827 36.6911 57.0827 36.6862 57.0827 36.6862 57.0827 36.6862 57.0778 36.6911 57.0778 36.6911 56.9507 36.7351 56.8236 36.7889 56.6964 36.8524 50.7467 39.3898 47.6227 38.4316 44.5427 34.232 44.1516 33.5964 43.6382 32.9902 43.0027 32.4671 40.6316 30.5116 37.5271 30.4089 36.1484 32.3009 34.7698 34.1929 35.6938 37.2631 38.148 39.116 39.5756 40.1916 41.2036 40.6071 42.5578 40.3773 42.5578 40.3773 42.5676 40.3773 42.5676 40.3773 42.7387 40.3431 42.9098 40.304 43.076 40.2551 46.1364 39.5267 52.8684 38.192 55.8653 42.2547 55.8996 42.3084 55.9338 42.3622 55.968 42.416 56.0658 42.5627 56.1684 42.7044 56.276 42.8364 56.276 42.8364 56.276 42.8364 56.276 42.8364 58.9502 48.0969 57.9627 51.3431 55.7871 55.2836 55.7187 55.3862 55.66 55.4889 55.6062 55.6062 55.0147 56.9262 55.7724 58.5884 57.2782 59.2924 58.7449 59.9867 60.3876 59.5027 60.9644 58.2316 61.3409 57.4004 61.1796 56.4178 60.6222 55.6307 57.6204 51.1084 58.6324 45.0804 61.116 44.0733M60.9938 44.044C60.9938 44.044 60.9107 44.0196 60.9107 44.0196 60.9107 44.0196 60.9351 44.0049 60.9351 44.0049 60.9351 44.0049 60.9987 43.9609 60.9987 43.9609 60.9987 43.9609 60.9938 44.044 60.9938 44.044 60.9938 44.044 60.9938 44.044 60.9938 44.044M76.8827 29.7098C73.1524 30.4236 68.4493 28.1991 67.1489 23.804 67.1098 23.6182 67.0609 23.4324 67.0071 23.2467 67.0071 23.2467 67.0071 23.2467 67.0071 23.2467 66.9436 23.0413 66.8702 22.836 66.7871 22.6307 65.6724 19.8831 63.0813 18.2209 61.0133 18.9884 58.9258 19.7658 58.2609 22.6991 59.5124 25.4516 60.4413 27.5147 62.1769 28.8591 63.8196 29.0058 63.8196 29.0058 63.8342 29.0058 63.8342 29.0058 63.9076 29.0107 63.976 29.0156 64.0493 29.0156 69.5004 29.3138 72.7956 30.5604 75.0982 34.3982 75.6018 35.9187 76.78 36.9844 78.0071 37.1116 78.0071 37.1116 78.0071 37.1116 78.0071 37.1116 81.8987 37.8009 85.0373 39.5316 85.9076 42.2693 86.2107 43.296 87.0076 44.0244 87.8973 44.0196 88.9778 44.0147 89.8089 42.9196 89.7747 41.5556 89.7404 40.1818 88.8116 39.0329 87.7018 39.0084 87.6187 39.0084 87.5404 39.0133 87.4622 39.0231 87.4622 39.0231 87.4622 39.0231 87.4622 39.0231 87.3547 39.0378 87.252 39.0622 87.1542 39.0964 84.1476 39.6929 80.8231 37.0773 80.7302 34.8822 80.7791 34.6769 80.8133 34.4569 80.828 34.2369 81.9916 29.5289 83.5658 26.84 87.8582 25.4173 88.0244 25.3831 88.1809 25.3342 88.3325 25.2707 88.3325 25.2707 88.3325 25.2707 88.3325 25.2707 89.5742 24.7329 90.4151 23.144 90.3662 21.164 90.3027 18.5582 88.7187 16.1969 86.7973 15.9524 85.1058 15.7178 83.7613 17.2138 83.5316 19.3796 83.5316 19.3796 83.5316 19.3796 83.5316 19.3796 83.5316 19.3796 83.5316 19.3844 83.5316 19.3844 83.5022 19.6778 83.4924 19.976 83.5022 20.2889 83.2822 26.0773 82.5391 29.0156 77.22 29.656 77.1662 29.656 77.1124 29.6658 77.0538 29.6756 76.9951 29.6853 76.9413 29.6951 76.8827 29.7098M109.012 28.9813C108.098 33.7529 109.154 35.992 110.684 38.0209 110.841 38.0844 110.997 38.1773 111.139 38.3044 111.168 38.3289 111.193 38.3533 111.217 38.3827 113.725 40.7831 115.974 40.5876 118.756 37.8889 119.607 36.9649 120.712 36.9796 121.352 37.9769 122.061 39.0769 121.934 40.9493 121.098 42.1764 120.311 43.3204 119.157 43.5307 118.414 42.7044 115.7 40.6364 114.312 40.4458 110.802 42.592 110.259 42.9782 109.619 42.9978 109.105 42.5676 108.504 42.064 108.23 41.0911 108.372 40.128 108.372 40.128 108.372 40.1182 108.372 40.1182 108.382 40.0498 108.396 39.9813 108.411 39.9129 108.895 37.0676 108.382 33.8311 105.365 30.7853 104.226 29.8564 103.718 27.7787 104.256 25.9307 104.837 23.9116 106.421 22.9973 107.756 23.9067 108.851 24.64 109.413 26.3609 109.213 28.0231 109.213 28.0231 109.213 28.028 109.213 28.028 109.179 28.3507 109.11 28.6684 109.012 28.9813 109.012 28.9813 109.012 28.9813 109.012 28.9813M32.34 61.9129C34.936 62.8467 37.4636 61.9716 38.0502 59.9524 38.6564 57.9236 37.0676 55.4156 34.452 54.3596 31.7582 53.2644 29.0449 54.1347 28.4729 56.2956 27.9009 58.4418 29.6658 60.9498 32.34 61.9129M127.507 48.136C126.96 48.7276 126.769 49.7591 127.077 50.424 127.375 51.0742 128.04 51.1378 128.573 50.5707 129.101 49.9987 129.306 48.9964 129.028 48.3218 128.739 47.6324 128.055 47.5396 127.507 48.136M93.0893 41.0422C92.928 42.3573 93.6271 43.5844 94.6391 43.8044 95.6316 44.0196 96.5751 43.1591 96.7511 41.8782 96.932 40.5827 96.272 39.3213 95.2502 39.0671 94.2284 38.8129 93.2458 39.7027 93.0893 41.0422M78.1342 43.7164C78.5058 45.2858 79.8258 46.2978 81.0822 46.0093 82.3289 45.7307 83.0671 44.2738 82.7493 42.7338 82.4218 41.1596 81.1115 40.0791 79.8258 40.3431 78.5253 40.6071 77.7627 42.1324 78.1342 43.7164M64.7191 52.36C65.6627 53.7044 67.3249 54.1004 68.4396 53.2791 69.5591 52.4578 69.74 50.7124 68.8356 49.3533 67.9116 47.9649 66.22 47.5053 65.0613 48.3462 63.8929 49.1871 63.7462 50.996 64.7191 52.36M101.767 35.728C101.337 37.1996 101.855 38.8422 102.901 39.3849 103.923 39.9178 105.096 39.2089 105.536 37.7862 105.976 36.344 105.512 34.6964 104.48 34.1049 103.429 33.4987 102.202 34.2271 101.767 35.728M93.7347 32.9707C93.5244 34.7307 94.4093 36.4124 95.6951 36.7547 96.9613 37.0969 98.164 36.0018 98.3987 34.3004 98.6431 32.5844 97.812 30.8538 96.5213 30.4529 95.2062 30.0569 93.9498 31.1911 93.7347 32.9707M84.4556 32.3596C84.5484 34.364 85.8782 35.9969 87.3791 36.0507 88.8556 36.0996 90.0044 34.5889 89.9458 32.6382 89.8969 30.6533 88.6209 28.9373 87.0956 28.8396 85.536 28.7271 84.3431 30.3209 84.4556 32.3596M65.5698 37.4831C66.4498 39.4533 68.4004 40.4653 69.9404 39.8004 71.4609 39.1404 72.0476 37.048 71.2458 35.0827 70.4147 33.0733 68.4444 31.9391 66.8458 32.5991 65.2276 33.264 64.6604 35.4689 65.5698 37.4831M46.7084 54.7947C48.708 55.6209 50.8151 54.956 51.4604 53.3329 52.1058 51.7098 51.0596 49.6809 49.0844 48.7716 47.0604 47.8524 44.836 48.4684 44.1662 50.1698 43.5013 51.8662 44.66 53.9489 46.7084 54.7947M123.767 43.34C122.951 44.22 122.667 45.76 123.122 46.7524 123.572 47.7253 124.564 47.8182 125.356 46.9676 126.148 46.1218 126.451 44.6258 126.036 43.6187 125.605 42.5871 124.588 42.4502 123.767 43.34M112.234 31.4698C111.491 33.044 111.726 35.0876 112.713 36.0311 113.691 36.9551 115.045 36.4809 115.774 34.98 116.507 33.4742 116.341 31.4502 115.388 30.4529 114.405 29.4311 112.982 29.8809 112.234 31.4698M94.5756 22.1418C94.2822 24.5716 95.4409 26.9427 97.108 27.5049 98.736 28.0427 100.305 26.6298 100.633 24.3124 100.97 21.9609 99.9093 19.4969 98.2324 18.8516 96.5164 18.1964 94.864 19.6827 94.5756 22.1418M71.5587 21.4133C72.2236 24.1609 74.3649 26.0773 76.3449 25.784 78.2858 25.4956 79.42 23.144 78.8822 20.4551 78.3151 17.7076 76.1982 15.6102 74.14 15.8449 72.0427 16.0747 70.884 18.6022 71.5587 21.4133M47.6227 31.5676C49.3631 33.9876 52.1889 34.8822 53.9733 33.6258 55.748 32.3791 55.9142 29.4213 54.2862 26.9427 52.6093 24.3809 49.6858 23.3053 47.784 24.6009 45.8773 25.9111 45.8236 29.0596 47.6227 31.5676" fill="#68448B" fill-rule="evenodd" fill-opacity="1" transform="matrix(1.00227 0 0 1 977.302 -10.9381)"/><path d="M72.3849 131.237C72.4876 128.353 70.8107 126.075 68.6351 126.075 66.4449 126.075 64.4747 128.387 64.2498 131.311 64.0151 134.322 65.7116 136.806 68.0338 136.772 70.3364 136.728 72.2871 134.22 72.3849 131.237M53.9147 108.132C53.9147 108.132 53.9293 108.191 53.9293 108.191 52.1204 106.793 50.2822 102.887 52.2476 97.7533 52.7902 96.5702 52.5702 95.26 51.6511 94.5951 50.5707 93.8031 48.9036 94.1747 47.9013 95.436 46.8796 96.7267 46.9284 98.4573 48.0333 99.2982 48.0676 99.3276 48.1067 99.352 48.1458 99.3813 50.6489 101.625 50.9129 106.221 48.9427 110.611 48.8938 110.709 48.8449 110.807 48.8058 110.909 48.8058 110.909 48.8058 110.909 48.8058 110.909 48.1116 112.547 48.3658 114.297 49.4316 115.256 49.4316 115.256 49.4364 115.256 49.4364 115.256 49.5391 115.348 49.6516 115.432 49.764 115.515 54.8778 119.475 55.5671 122.667 53.3964 127.4 53.0298 128.05 52.756 128.798 52.6044 129.609 52.0569 132.636 53.4796 135.388 55.8018 135.672 58.1289 135.955 60.3582 133.652 60.7787 130.607 61.0231 128.837 60.5929 127.214 59.7324 126.143 59.7324 126.143 59.7276 126.133 59.7276 126.133 59.6151 126.001 59.4929 125.869 59.3707 125.747 57.244 123.43 52.8 118.204 54.8876 113.603 54.9169 113.549 54.9462 113.496 54.9756 113.437 55.0587 113.28 55.132 113.124 55.1907 112.963 58.4809 108.064 61.8004 107.345 66.2982 107.326 66.4204 107.336 66.5476 107.336 66.6698 107.326 68.112 107.199 69.1924 105.732 69.0751 104.075 68.9676 102.452 67.7453 101.254 66.352 101.371 65.4427 101.444 64.6604 102.06 64.2498 102.936 61.7613 107.761 56.0071 109.814 53.9147 108.132M53.9489 108.255C53.9489 108.255 53.9733 108.343 53.9733 108.343 53.9733 108.343 53.944 108.328 53.944 108.328 53.944 108.328 53.8756 108.294 53.8756 108.294 53.8756 108.294 53.9489 108.255 53.9489 108.255 53.9489 108.255 53.9489 108.255 53.9489 108.255M33.6893 101.366C36.1338 104.275 36.4809 109.467 33.2738 112.743 33.132 112.87 32.9951 112.997 32.8582 113.139 32.7116 113.295 32.5649 113.456 32.428 113.632 30.5702 115.945 30.3796 119.02 32.0613 120.448 33.7578 121.89 36.6422 121.044 38.4364 118.609 39.7858 116.791 40.1133 114.62 39.4387 113.114 39.4387 113.114 39.4338 113.104 39.4338 113.104 39.4044 113.041 39.3702 112.972 39.336 112.909 36.9404 108.005 36.4271 104.524 38.6516 100.643 39.7369 99.4596 40.0938 97.9098 39.6049 96.7756 39.6049 96.7756 39.6049 96.7756 39.6049 96.7756 38.3093 93.0453 38.2947 89.4569 40.26 87.3644 41.008 86.6018 41.2573 85.5458 40.8173 84.7733 40.2844 83.8298 38.9253 83.6391 37.752 84.3333 36.5689 85.0373 36.0164 86.4062 36.5396 87.384 36.5787 87.4573 36.6227 87.5258 36.6667 87.5844 36.6667 87.5844 36.6667 87.5893 36.6667 87.5893 36.7351 87.6773 36.8036 87.7507 36.8818 87.824 38.8667 90.156 38.2067 94.3311 36.3342 95.4849 36.1289 95.5435 35.9236 95.6218 35.7182 95.7147 31.0396 96.9907 27.9253 96.9271 24.5911 93.8716 24.4836 93.7444 24.3662 93.632 24.2342 93.5342 24.2342 93.5342 24.2342 93.5293 24.2342 93.5293 23.1587 92.708 21.3596 92.7471 19.6582 93.7542 17.4142 95.0791 16.1236 97.6164 16.8422 99.4107 17.4631 101.004 19.4284 101.449 21.428 100.594 21.428 100.594 21.428 100.594 21.428 100.594 21.428 100.594 21.4329 100.594 21.4329 100.594 21.7018 100.476 21.9707 100.34 22.2396 100.178 27.3973 97.5431 30.3258 96.7658 33.4742 101.097 33.5084 101.141 33.5427 101.19 33.5769 101.234 33.6111 101.278 33.6502 101.322 33.6893 101.366M17.3996 73.6658C22.0098 72.1404 23.4471 70.1213 24.4787 67.7991 24.4542 67.628 24.4591 67.452 24.5031 67.2613 24.5129 67.2271 24.5227 67.1929 24.5324 67.1587 25.4076 63.7951 24.1413 61.9276 20.4307 60.8178 19.2084 60.5244 18.6804 59.5516 19.2427 58.5053 19.8538 57.3516 21.5502 56.5449 23.0316 56.6818 24.4102 56.8089 25.1631 57.7133 24.8013 58.7693 24.3173 62.1427 24.8258 63.4529 28.4093 65.472 29.0107 65.7507 29.3382 66.3031 29.216 66.9631 29.0693 67.7307 28.3507 68.4444 27.4462 68.7916 27.4462 68.7916 27.4364 68.7964 27.4364 68.7964 27.368 68.8209 27.3044 68.8404 27.236 68.86 24.5129 69.8231 21.9364 71.852 20.7484 75.9733 20.4942 77.4204 18.9249 78.8724 17.0524 79.3076 15.004 79.7769 13.4347 78.8431 13.5764 77.2298 13.684 75.9244 14.9111 74.5947 16.4609 73.9542 16.4609 73.9542 16.4658 73.9542 16.4658 73.9542 16.764 73.8271 17.0769 73.7293 17.3947 73.6658 17.3947 73.6658 17.3996 73.6658 17.3996 73.6658M83.512 124.569C83.0671 121.851 81.0676 120.066 79.024 120.54 76.956 121 75.5382 123.606 75.8902 126.407 76.252 129.292 78.3298 131.237 80.4956 130.685 82.6467 130.137 83.9813 127.37 83.512 124.569M25.1093 48.18C25.8964 48.3707 26.8889 48.0333 27.3191 47.4418 27.7444 46.8649 27.4707 46.2489 26.7178 46.0631 25.96 45.8773 24.9871 46.1902 24.5373 46.7622 24.0729 47.3489 24.3222 47.9893 25.1093 48.18M35.684 81.6933C36.916 81.1898 37.6444 79.9822 37.3462 78.9947 37.0431 78.0218 35.8356 77.616 34.6329 78.0853 33.4156 78.5596 32.6333 79.7524 32.9071 80.7644 33.1858 81.7862 34.4422 82.2116 35.684 81.6933M45.3102 93.4462C46.4982 92.356 46.7378 90.7133 45.8822 89.76 45.0316 88.8067 43.3938 88.8702 42.2009 89.8969 40.9884 90.948 40.6853 92.6151 41.5458 93.6173 42.4062 94.6196 44.1076 94.5413 45.3102 93.4462M59.4 100.951C60.1089 99.4693 59.6444 97.8267 58.3831 97.2547 57.1267 96.6778 55.5133 97.3671 54.7653 98.8191 54.0027 100.305 54.428 102.007 55.7236 102.608 57.0289 103.214 58.6813 102.461 59.4 100.951M26.8156 76.7018C28.3164 76.3596 29.4947 75.1129 29.4604 73.9298 29.4262 72.776 28.2382 72.1013 26.7813 72.4093 25.3049 72.7271 24.0924 73.9347 24.0827 75.1227 24.0631 76.34 25.2951 77.0538 26.8156 76.7018M28.3262 85.0618C29.9689 84.392 31.0053 82.7933 30.6729 81.5076 30.3551 80.2365 28.8151 79.7182 27.2164 80.3391 25.5982 80.9649 24.4884 82.5342 24.7671 83.8542 25.0604 85.1987 26.6689 85.7413 28.3262 85.0618M32.3156 93.4609C34.0169 92.4 34.7991 90.4493 34.1147 89.1098 33.4351 87.7996 31.5578 87.5307 29.8809 88.5329 28.1747 89.54 27.2947 91.4907 27.9498 92.8742 28.6147 94.292 30.5898 94.5511 32.3156 93.4609M45.9947 107.458C47.2804 105.727 47.2169 103.532 45.8822 102.51 44.5671 101.503 42.4551 102.016 41.1302 103.669 39.776 105.375 39.7467 107.648 41.1009 108.724 42.4747 109.809 44.6747 109.228 45.9947 107.458M70.3022 115.49C70.0431 113.344 68.4396 111.824 66.7089 112.053 64.9733 112.283 63.7071 114.185 63.8831 116.351 64.064 118.565 65.6871 120.213 67.5009 119.964 69.3049 119.719 70.5564 117.69 70.3022 115.49M22.7431 53.7827C23.9116 54.0662 25.3929 53.5676 26.0431 52.6827 26.6738 51.8173 26.268 50.9031 25.1436 50.6244 24.0142 50.3507 22.5622 50.8151 21.8827 51.6658 21.1933 52.5458 21.5698 53.4991 22.7431 53.7827M18.0009 69.6373C19.7364 69.52 21.4084 68.3173 21.7507 66.9973 22.0782 65.6969 21.0027 64.7436 19.3404 64.8364 17.6684 64.9293 15.9818 66.0587 15.576 67.3836 15.1604 68.7378 16.2507 69.7596 18.0009 69.6373M18.4604 89.6036C20.7191 88.6747 22.2298 86.5089 21.9071 84.7782 21.5844 83.0964 19.5849 82.412 17.4044 83.2529 15.1849 84.1084 13.552 86.2302 13.8062 88.0098 14.0702 89.8284 16.1676 90.5471 18.4604 89.6036M29.04 110.059C31.1178 108.142 31.7436 105.336 30.5262 103.747 29.3236 102.192 26.7178 102.349 24.6351 104.128 22.5084 105.967 21.7116 108.836 22.9191 110.518 24.1413 112.234 26.9182 112.019 29.04 110.059M49.5733 126.011C50.8347 123.312 50.2431 120.408 48.2778 119.46 46.3173 118.516 43.6529 119.817 42.284 122.447 40.8613 125.156 41.3502 128.236 43.4084 129.267 45.4813 130.294 48.2582 128.803 49.5733 126.011" fill="#916BA4" fill-rule="evenodd" fill-opacity="1" transform="matrix(1.00227 0 0 1 977.302 -10.9381)"/><path d="M73.9738 63.4871C73.9738 63.4871 73.9738 73.6707 73.9738 73.6707 73.9738 73.6707 71.6956 73.6707 71.6956 73.6707 71.6956 73.6707 71.6956 59.2093 71.6956 59.2093 71.6956 59.2093 73.4849 59.2093 73.4849 59.2093 73.4849 59.2093 81.7569 69.6373 81.7569 69.6373 81.7569 69.6373 81.7569 59.2289 81.7569 59.2289 81.7569 59.2289 84.0596 59.2289 84.0596 59.2289 84.0596 59.2289 84.0596 73.6707 84.0596 73.6707 84.0596 73.6707 82.1627 73.6707 82.1627 73.6707 82.1627 73.6707 73.9738 63.4871 73.9738 63.4871 73.9738 63.4871 73.9738 63.4871 73.9738 63.4871M97.24 71.6516C97.24 71.6516 97.24 73.6707 97.24 73.6707 97.24 73.6707 87.3156 73.6707 87.3156 73.6707 87.3156 73.6707 87.3156 59.2093 87.3156 59.2093 87.3156 59.2093 97.0542 59.2093 97.0542 59.2093 97.0542 59.2093 97.0542 61.2236 97.0542 61.2236 97.0542 61.2236 89.5987 61.2236 89.5987 61.2236 89.5987 61.2236 89.5987 65.34 89.5987 65.34 89.5987 65.34 96.0569 65.34 96.0569 65.34 96.0569 65.34 96.0569 67.232 96.0569 67.232 96.0569 67.232 89.5987 67.232 89.5987 67.232 89.5987 67.232 89.5987 71.6516 89.5987 71.6516 89.5987 71.6516 97.24 71.6516 97.24 71.6516 97.24 71.6516 97.24 71.6516 97.24 71.6516M105.629 71.7151C106.392 71.7151 107.023 71.5636 107.526 71.2653 108.025 70.9671 108.431 70.576 108.739 70.0969 109.042 69.6129 109.262 69.0604 109.389 68.4444 109.516 67.8284 109.584 67.1929 109.584 66.5427 109.584 66.5427 109.584 59.2093 109.584 59.2093 109.584 59.2093 111.882 59.2093 111.882 59.2093 111.882 59.2093 111.882 66.5427 111.882 66.5427 111.882 67.5302 111.77 68.4689 111.535 69.3391 111.305 70.2191 110.939 70.9867 110.435 71.6418 109.932 72.3018 109.286 72.82 108.489 73.2013 107.697 73.5827 106.744 73.7684 105.629 73.7684 104.476 73.7684 103.503 73.5729 102.706 73.172 101.914 72.7711 101.268 72.2333 100.78 71.5587 100.291 70.8889 99.9387 70.1164 99.7236 69.2511 99.5036 68.3809 99.396 67.4764 99.396 66.5427 99.396 66.5427 99.396 59.2093 99.396 59.2093 99.396 59.2093 101.679 59.2093 101.679 59.2093 101.679 59.2093 101.679 66.5427 101.679 66.5427 101.679 67.2076 101.743 67.848 101.87 68.4689 102.002 69.0849 102.217 69.6324 102.525 70.1164 102.828 70.5956 103.234 70.9867 103.747 71.2751 104.256 71.5684 104.881 71.7151 105.629 71.7151M114.918 73.6707C114.918 73.6707 114.918 59.2093 114.918 59.2093 114.918 59.2093 121.215 59.2093 121.215 59.2093 121.865 59.2093 122.467 59.3462 123.014 59.6151 123.562 59.8889 124.036 60.2409 124.432 60.6858 124.823 61.1258 125.136 61.6244 125.356 62.1916 125.581 62.7538 125.693 63.3307 125.693 63.9124 125.693 64.4013 125.625 64.8707 125.493 65.3204 125.356 65.7653 125.165 66.1809 124.921 66.5622 124.676 66.9436 124.378 67.2711 124.026 67.5498 123.669 67.8284 123.283 68.0338 122.863 68.1707 122.863 68.1707 126.265 73.6707 126.265 73.6707 126.265 73.6707 123.674 73.6707 123.674 73.6707 123.674 73.6707 120.54 68.64 120.54 68.64 120.54 68.64 117.201 68.64 117.201 68.64 117.201 68.64 117.201 73.6707 117.201 73.6707 117.201 73.6707 114.918 73.6707 114.918 73.6707M117.201 66.6209C117.201 66.6209 121.196 66.6209 121.196 66.6209 121.518 66.6209 121.812 66.5524 122.076 66.4107 122.34 66.264 122.569 66.0684 122.76 65.8191 122.951 65.5649 123.097 65.2764 123.21 64.9538 123.317 64.6262 123.371 64.2791 123.371 63.9124 123.371 63.5458 123.308 63.1987 123.18 62.8711 123.048 62.5484 122.877 62.2649 122.667 62.0204 122.457 61.7711 122.212 61.5804 121.934 61.4387 121.655 61.2969 121.372 61.2236 121.068 61.2236 121.068 61.2236 117.201 61.2236 117.201 61.2236 117.201 61.2236 117.201 66.6209 117.201 66.6209M132.416 59.2093C132.416 59.2093 134.415 59.2093 134.415 59.2093 134.415 59.2093 140.116 73.6707 140.116 73.6707 140.116 73.6707 137.71 73.6707 137.71 73.6707 137.71 73.6707 136.185 69.74 136.185 69.74 136.185 69.74 130.602 69.74 130.602 69.74 130.602 69.74 129.096 73.6707 129.096 73.6707 129.096 73.6707 126.671 73.6707 126.671 73.6707 126.671 73.6707 132.416 59.2093 132.416 59.2093 132.416 59.2093 132.416 59.2093 132.416 59.2093M135.735 68.0484C135.735 68.0484 133.413 61.8347 133.413 61.8347 133.413 61.8347 131.012 68.0484 131.012 68.0484 131.012 68.0484 135.735 68.0484 135.735 68.0484 135.735 68.0484 135.735 68.0484 135.735 68.0484M141.91 73.6707C141.91 73.6707 141.91 59.2093 141.91 59.2093 141.91 59.2093 144.188 59.2093 144.188 59.2093 144.188 59.2093 144.188 71.6516 144.188 71.6516 144.188 71.6516 151.952 71.6516 151.952 71.6516 151.952 71.6516 151.952 73.6707 151.952 73.6707 151.952 73.6707 141.91 73.6707 141.91 73.6707 141.91 73.6707 141.91 73.6707 141.91 73.6707M158.288 73.6707C158.288 73.6707 158.288 59.2093 158.288 59.2093 158.288 59.2093 160.566 59.2093 160.566 59.2093 160.566 59.2093 160.566 73.6707 160.566 73.6707 160.566 73.6707 158.288 73.6707 158.288 73.6707 158.288 73.6707 158.288 73.6707 158.288 73.6707M166.105 63.4871C166.105 63.4871 166.105 73.6707 166.105 73.6707 166.105 73.6707 163.827 73.6707 163.827 73.6707 163.827 73.6707 163.827 59.2093 163.827 59.2093 163.827 59.2093 165.616 59.2093 165.616 59.2093 165.616 59.2093 173.888 69.6373 173.888 69.6373 173.888 69.6373 173.888 59.2289 173.888 59.2289 173.888 59.2289 176.191 59.2289 176.191 59.2289 176.191 59.2289 176.191 73.6707 176.191 73.6707 176.191 73.6707 174.299 73.6707 174.299 73.6707 174.299 73.6707 166.105 63.4871 166.105 63.4871 166.105 63.4871 166.105 63.4871 166.105 63.4871M179.452 73.6707C179.452 73.6707 179.452 59.2093 179.452 59.2093 179.452 59.2093 189.083 59.2093 189.083 59.2093 189.083 59.2093 189.083 61.2236 189.083 61.2236 189.083 61.2236 181.73 61.2236 181.73 61.2236 181.73 61.2236 181.73 65.5453 181.73 65.5453 181.73 65.5453 187.885 65.5453 187.885 65.5453 187.885 65.5453 187.885 67.4373 187.885 67.4373 187.885 67.4373 181.73 67.4373 181.73 67.4373 181.73 67.4373 181.73 73.6707 181.73 73.6707 181.73 73.6707 179.452 73.6707 179.452 73.6707 179.452 73.6707 179.452 73.6707 179.452 73.6707M196.929 73.7684C195.893 73.7684 194.954 73.5631 194.104 73.1524 193.258 72.7369 192.529 72.1844 191.918 71.5 191.302 70.8156 190.833 70.0333 190.5 69.1484 190.168 68.2636 190.002 67.364 190.002 66.44 190.002 65.4769 190.178 64.5529 190.53 63.668 190.882 62.7831 191.371 62.0058 191.987 61.3262 192.608 60.6467 193.336 60.1089 194.187 59.7031 195.037 59.3071 195.961 59.1067 196.968 59.1067 198 59.1067 198.939 59.3169 199.789 59.7471 200.64 60.1724 201.364 60.7347 201.97 61.4289 202.571 62.1182 203.04 62.9053 203.373 63.7804 203.705 64.6556 203.872 65.5502 203.872 66.4596 203.872 67.4227 203.7 68.3467 203.353 69.2316 203.006 70.1115 202.522 70.8889 201.896 71.5587 201.271 72.2333 200.537 72.7711 199.687 73.172 198.836 73.5729 197.917 73.7684 196.929 73.7684M192.324 66.44C192.324 67.1196 192.432 67.7747 192.652 68.4151 192.867 69.0507 193.175 69.6178 193.576 70.1067 193.976 70.5956 194.46 70.9867 195.032 71.2751 195.604 71.5684 196.24 71.7151 196.949 71.7151 197.682 71.7151 198.328 71.5587 198.895 71.2556 199.457 70.9476 199.936 70.5467 200.327 70.0431 200.723 69.5444 201.021 68.9773 201.227 68.3564 201.432 67.7307 201.53 67.0902 201.53 66.44 201.53 65.7458 201.422 65.0858 201.207 64.4502 200.987 63.8244 200.679 63.2622 200.278 62.7831 199.877 62.2991 199.393 61.9129 198.831 61.6196 198.269 61.3311 197.638 61.1844 196.949 61.1844 196.216 61.1844 195.56 61.336 194.993 61.6391 194.421 61.9471 193.937 62.3431 193.546 62.832 193.15 63.3209 192.847 63.8831 192.642 64.5138 192.432 65.1444 192.324 65.7849 192.324 66.44M206.238 73.6707C206.238 73.6707 206.238 59.2093 206.238 59.2093 206.238 59.2093 212.53 59.2093 212.53 59.2093 213.18 59.2093 213.781 59.3462 214.334 59.6151 214.881 59.8889 215.356 60.2409 215.747 60.6858 216.143 61.1258 216.451 61.6244 216.676 62.1916 216.9 62.7538 217.013 63.3307 217.013 63.9124 217.013 64.4013 216.944 64.8707 216.808 65.3204 216.671 65.7653 216.48 66.1809 216.236 66.5622 215.991 66.9436 215.693 67.2711 215.341 67.5498 214.989 67.8284 214.603 68.0338 214.177 68.1707 214.177 68.1707 217.58 73.6707 217.58 73.6707 217.58 73.6707 214.994 73.6707 214.994 73.6707 214.994 73.6707 211.86 68.64 211.86 68.64 211.86 68.64 208.516 68.64 208.516 68.64 208.516 68.64 208.516 73.6707 208.516 73.6707 208.516 73.6707 206.238 73.6707 206.238 73.6707M208.516 66.6209C208.516 66.6209 212.51 66.6209 212.51 66.6209 212.833 66.6209 213.131 66.5524 213.395 66.4107 213.659 66.264 213.889 66.0684 214.08 65.8191 214.27 65.5649 214.417 65.2764 214.524 64.9538 214.637 64.6262 214.686 64.2791 214.686 63.9124 214.686 63.5458 214.627 63.1987 214.495 62.8711 214.368 62.5484 214.197 62.2649 213.987 62.0204 213.776 61.7711 213.532 61.5804 213.253 61.4387 212.975 61.2969 212.686 61.2236 212.388 61.2236 212.388 61.2236 208.516 61.2236 208.516 61.2236 208.516 61.2236 208.516 66.6209 208.516 66.6209M231.86 73.6707C231.86 73.6707 231.86 63.2622 231.86 63.2622 231.86 63.2622 227.563 71.1431 227.563 71.1431 227.563 71.1431 226.297 71.1431 226.297 71.1431 226.297 71.1431 221.98 63.2622 221.98 63.2622 221.98 63.2622 221.98 73.6707 221.98 73.6707 221.98 73.6707 219.702 73.6707 219.702 73.6707 219.702 73.6707 219.702 59.2093 219.702 59.2093 219.702 59.2093 222.141 59.2093 222.141 59.2093 222.141 59.2093 226.932 68.0484 226.932 68.0484 226.932 68.0484 231.719 59.2093 231.719 59.2093 231.719 59.2093 234.163 59.2093 234.163 59.2093 234.163 59.2093 234.163 73.6707 234.163 73.6707 234.163 73.6707 231.86 73.6707 231.86 73.6707 231.86 73.6707 231.86 73.6707 231.86 73.6707M241.677 59.2093C241.677 59.2093 243.677 59.2093 243.677 59.2093 243.677 59.2093 249.377 73.6707 249.377 73.6707 249.377 73.6707 246.972 73.6707 246.972 73.6707 246.972 73.6707 245.447 69.74 245.447 69.74 245.447 69.74 239.868 69.74 239.868 69.74 239.868 69.74 238.358 73.6707 238.358 73.6707 238.358 73.6707 235.933 73.6707 235.933 73.6707 235.933 73.6707 241.677 59.2093 241.677 59.2093 241.677 59.2093 241.677 59.2093 241.677 59.2093M244.997 68.0484C244.997 68.0484 242.675 61.8347 242.675 61.8347 242.675 61.8347 240.274 68.0484 240.274 68.0484 240.274 68.0484 244.997 68.0484 244.997 68.0484 244.997 68.0484 244.997 68.0484 244.997 68.0484M260.358 61.2236C260.358 61.2236 255.552 61.2236 255.552 61.2236 255.552 61.2236 255.552 73.6707 255.552 73.6707 255.552 73.6707 253.249 73.6707 253.249 73.6707 253.249 73.6707 253.249 61.2236 253.249 61.2236 253.249 61.2236 248.419 61.2236 248.419 61.2236 248.419 61.2236 248.419 59.2093 248.419 59.2093 248.419 59.2093 260.358 59.2093 260.358 59.2093 260.358 59.2093 260.358 61.2236 260.358 61.2236 260.358 61.2236 260.358 61.2236 260.358 61.2236M262.294 73.6707C262.294 73.6707 262.294 59.2093 262.294 59.2093 262.294 59.2093 264.577 59.2093 264.577 59.2093 264.577 59.2093 264.577 73.6707 264.577 73.6707 264.577 73.6707 262.294 73.6707 262.294 73.6707 262.294 73.6707 262.294 73.6707 262.294 73.6707M273.841 73.7684C272.81 73.7684 271.871 73.5631 271.02 73.1524 270.175 72.7369 269.441 72.1844 268.83 71.5 268.219 70.8156 267.75 70.0333 267.417 69.1484 267.085 68.2636 266.919 67.364 266.919 66.44 266.919 65.4769 267.095 64.5529 267.447 63.668 267.799 62.7831 268.288 62.0058 268.904 61.3262 269.52 60.6467 270.253 60.1089 271.104 59.7031 271.949 59.3071 272.878 59.1067 273.885 59.1067 274.917 59.1067 275.856 59.3169 276.706 59.7471 277.552 60.1724 278.28 60.7347 278.887 61.4289 279.488 62.1182 279.957 62.9053 280.29 63.7804 280.622 64.6556 280.788 65.5502 280.788 66.4596 280.788 67.4227 280.617 68.3467 280.27 69.2316 279.923 70.1115 279.439 70.8889 278.813 71.5587 278.188 72.2333 277.454 72.7711 276.604 73.172 275.753 73.5729 274.834 73.7684 273.841 73.7684M269.241 66.44C269.241 67.1196 269.348 67.7747 269.568 68.4151 269.784 69.0507 270.092 69.6178 270.492 70.1067 270.893 70.5956 271.377 70.9867 271.949 71.2751 272.516 71.5684 273.157 71.7151 273.866 71.7151 274.599 71.7151 275.244 71.5587 275.807 71.2556 276.374 70.9476 276.853 70.5467 277.244 70.0431 277.64 69.5444 277.938 68.9773 278.139 68.3564 278.344 67.7307 278.447 67.0902 278.447 66.44 278.447 65.7458 278.339 65.0858 278.119 64.4502 277.904 63.8244 277.596 63.2622 277.195 62.7831 276.794 62.2991 276.31 61.9129 275.748 61.6196 275.186 61.3311 274.555 61.1844 273.866 61.1844 273.128 61.1844 272.477 61.336 271.91 61.6391 271.338 61.9471 270.854 62.3431 270.463 62.832 270.067 63.3209 269.764 63.8831 269.554 64.5138 269.344 65.1444 269.241 65.7849 269.241 66.44M285.433 63.4871C285.433 63.4871 285.433 73.6707 285.433 73.6707 285.433 73.6707 283.15 73.6707 283.15 73.6707 283.15 73.6707 283.15 59.2093 283.15 59.2093 283.15 59.2093 284.944 59.2093 284.944 59.2093 284.944 59.2093 293.211 69.6373 293.211 69.6373 293.211 69.6373 293.211 59.2289 293.211 59.2289 293.211 59.2289 295.519 59.2289 295.519 59.2289 295.519 59.2289 295.519 73.6707 295.519 73.6707 295.519 73.6707 293.622 73.6707 293.622 73.6707 293.622 73.6707 285.433 63.4871 285.433 63.4871 285.433 63.4871 285.433 63.4871 285.433 63.4871" fill="#323539" fill-rule="nonzero" fill-opacity="1" transform="matrix(1.00227 0 0 1 977.302 -10.9381)"/><path d="M71.6956 94.4973C71.6956 94.4973 71.6956 80.1876 71.6956 80.1876 71.6956 80.1876 77.6991 80.1876 77.6991 80.1876 78.3444 80.1876 78.936 80.3244 79.4836 80.5933 80.0262 80.8622 80.4956 81.2142 80.8818 81.6493 81.2729 82.0893 81.5809 82.5831 81.8009 83.1453 82.0209 83.7027 82.1333 84.2698 82.1333 84.8467 82.1333 85.4529 82.0307 86.0298 81.8204 86.592 81.6102 87.1444 81.3169 87.6431 80.9453 88.0831 80.5689 88.5133 80.1142 88.8653 79.5813 89.1293 79.0533 89.3884 78.4618 89.5204 77.8213 89.5204 77.8213 89.5204 73.9493 89.5204 73.9493 89.5204 73.9493 89.5204 73.9493 94.4973 73.9493 94.4973 73.9493 94.4973 71.6956 94.4973 71.6956 94.4973M73.9493 87.5258C73.9493 87.5258 77.6796 87.5258 77.6796 87.5258 78.0022 87.5258 78.2907 87.4573 78.5547 87.3253 78.8187 87.1884 79.0435 87.0027 79.2293 86.7582 79.4151 86.5187 79.5667 86.24 79.6742 85.9124 79.7818 85.5898 79.8356 85.2329 79.8356 84.8467 79.8356 84.4409 79.772 84.0791 79.6547 83.7564 79.5324 83.4338 79.3662 83.1551 79.1511 82.9204 78.936 82.6858 78.6916 82.5049 78.4178 82.3778 78.1391 82.2507 77.8507 82.1871 77.5573 82.1871 77.5573 82.1871 73.9493 82.1871 73.9493 82.1871 73.9493 82.1871 73.9493 87.5258 73.9493 87.5258M84.4311 94.4973C84.4311 94.4973 84.4311 80.1876 84.4311 80.1876 84.4311 80.1876 90.6547 80.1876 90.6547 80.1876 91.3 80.1876 91.8964 80.3244 92.4391 80.5933 92.9867 80.8622 93.4511 81.2142 93.8422 81.6493 94.2284 82.0893 94.5364 82.5831 94.7564 83.1453 94.9813 83.7027 95.0889 84.2698 95.0889 84.8467 95.0889 85.3258 95.0204 85.7951 94.8884 86.24 94.7516 86.68 94.5658 87.0907 94.3213 87.4671 94.0818 87.8436 93.7836 88.1662 93.4364 88.44 93.0893 88.7187 92.7031 88.924 92.2876 89.056 92.2876 89.056 95.656 94.4973 95.656 94.4973 95.656 94.4973 93.0942 94.4973 93.0942 94.4973 93.0942 94.4973 89.9898 89.5204 89.9898 89.5204 89.9898 89.5204 86.6849 89.5204 86.6849 89.5204 86.6849 89.5204 86.6849 94.4973 86.6849 94.4973 86.6849 94.4973 84.4311 94.4973 84.4311 94.4973M86.6849 87.5258C86.6849 87.5258 90.6351 87.5258 90.6351 87.5258 90.9578 87.5258 91.2511 87.4573 91.5151 87.3156 91.7742 87.1738 91.9991 86.9782 92.1898 86.7289 92.3756 86.4796 92.5222 86.196 92.6298 85.8733 92.7373 85.5507 92.7911 85.2085 92.7911 84.8467 92.7911 84.48 92.7275 84.1427 92.6004 83.82 92.4733 83.4924 92.3071 83.2138 92.0969 82.9742 91.8916 82.7298 91.6471 82.5391 91.3733 82.3973 91.0947 82.2556 90.8111 82.1871 90.5178 82.1871 90.5178 82.1871 86.6849 82.1871 86.6849 82.1871 86.6849 82.1871 86.6849 87.5258 86.6849 87.5258M103.874 94.6C102.852 94.6 101.924 94.3947 101.083 93.984 100.247 93.5733 99.5231 93.0307 98.9218 92.3511 98.3156 91.6716 97.8462 90.8991 97.5187 90.024 97.1911 89.1489 97.0249 88.2591 97.0249 87.3449 97.0249 86.3916 97.2009 85.4773 97.548 84.6022 97.8951 83.732 98.3791 82.9547 98.9853 82.2849 99.6013 81.6151 100.325 81.0822 101.166 80.6862 102.007 80.2853 102.921 80.0898 103.918 80.0898 104.935 80.0898 105.869 80.3 106.71 80.7253 107.546 81.1507 108.264 81.7031 108.861 82.3876 109.462 83.072 109.927 83.8493 110.254 84.7147 110.582 85.58 110.748 86.4649 110.748 87.3644 110.748 88.3178 110.577 89.232 110.235 90.1071 109.892 90.9773 109.413 91.7498 108.792 92.4147 108.176 93.0747 107.448 93.6076 106.607 94.0036 105.766 94.3996 104.857 94.6 103.874 94.6M99.3227 87.3449C99.3227 88.0147 99.4302 88.6698 99.6404 89.3004 99.8604 89.9311 100.164 90.4884 100.56 90.9724 100.956 91.4564 101.435 91.8427 102.002 92.1311 102.569 92.4195 103.195 92.5613 103.899 92.5613 104.622 92.5613 105.263 92.4147 105.82 92.1115 106.377 91.8084 106.852 91.4076 107.243 90.9138 107.629 90.4151 107.927 89.8578 108.128 89.2418 108.328 88.6209 108.431 87.9902 108.431 87.3449 108.431 86.6604 108.323 86.0053 108.108 85.3796 107.893 84.7538 107.585 84.2013 107.189 83.7271 106.793 83.2529 106.319 82.8667 105.761 82.5782 105.204 82.2898 104.583 82.1431 103.899 82.1431 103.17 82.1431 102.525 82.2996 101.963 82.5978 101.396 82.9009 100.921 83.292 100.53 83.776 100.139 84.26 99.8409 84.8173 99.6356 85.4382 99.4253 86.064 99.3227 86.6996 99.3227 87.3449M112.361 87.2471C112.361 86.3818 112.513 85.5262 112.826 84.6756 113.134 83.82 113.584 83.0573 114.185 82.3778 114.781 81.6982 115.51 81.1507 116.37 80.7351 117.231 80.3196 118.204 80.1093 119.294 80.1093 120.594 80.1093 121.709 80.3978 122.638 80.9747 123.562 81.5516 124.261 82.3044 124.735 83.2333 124.735 83.2333 122.96 84.4213 122.96 84.4213 122.76 83.9911 122.516 83.6293 122.237 83.336 121.953 83.0378 121.64 82.8031 121.303 82.6271 120.971 82.456 120.624 82.3289 120.257 82.2556 119.895 82.1822 119.548 82.1431 119.211 82.1431 118.458 82.1431 117.798 82.2996 117.236 82.5978 116.673 82.9009 116.199 83.3018 115.813 83.7956 115.432 84.2942 115.143 84.8516 114.948 85.4724 114.757 86.0884 114.659 86.7093 114.659 87.3253 114.659 88.0244 114.772 88.6893 115.001 89.32 115.226 89.9507 115.544 90.508 115.955 90.992 116.365 91.476 116.854 91.8622 117.416 92.1507 117.984 92.4391 118.6 92.5858 119.269 92.5858 119.621 92.5858 119.978 92.5418 120.35 92.4538 120.716 92.3658 121.073 92.224 121.416 92.0284 121.758 91.8378 122.076 91.5884 122.364 91.2951 122.652 91.0018 122.892 90.6449 123.078 90.2244 123.078 90.2244 124.955 91.2951 124.955 91.2951 124.725 91.8329 124.403 92.3071 123.987 92.7178 123.572 93.1236 123.102 93.4707 122.579 93.7542 122.051 94.0378 121.499 94.248 120.912 94.3996 120.33 94.5462 119.753 94.6196 119.191 94.6196 118.184 94.6196 117.265 94.4044 116.429 93.9742 115.598 93.544 114.879 92.9818 114.273 92.2924 113.672 91.5982 113.197 90.816 112.865 89.9311 112.528 89.056 112.361 88.1564 112.361 87.2471M137.045 92.5027C137.045 92.5027 137.045 94.4973 137.045 94.4973 137.045 94.4973 127.228 94.4973 127.228 94.4973 127.228 94.4973 127.228 80.1876 127.228 80.1876 127.228 80.1876 136.864 80.1876 136.864 80.1876 136.864 80.1876 136.864 82.1871 136.864 82.1871 136.864 82.1871 129.487 82.1871 129.487 82.1871 129.487 82.1871 129.487 86.2547 129.487 86.2547 129.487 86.2547 135.877 86.2547 135.877 86.2547 135.877 86.2547 135.877 88.132 135.877 88.132 135.877 88.132 129.487 88.132 129.487 88.132 129.487 88.132 129.487 92.5027 129.487 92.5027 129.487 92.5027 137.045 92.5027 137.045 92.5027 137.045 92.5027 137.045 92.5027 137.045 92.5027M147.728 83.556C147.591 83.4093 147.395 83.2529 147.141 83.0818 146.887 82.9156 146.588 82.7542 146.241 82.6076 145.899 82.4609 145.528 82.3387 145.117 82.2458 144.706 82.1529 144.286 82.104 143.856 82.104 142.902 82.104 142.198 82.28 141.748 82.6271 141.299 82.9791 141.074 83.4631 141.074 84.0791 141.074 84.4311 141.142 84.7147 141.289 84.9347 141.431 85.1596 141.646 85.3551 141.944 85.5213 142.237 85.6876 142.609 85.8391 143.049 85.9662 143.494 86.0933 144.012 86.2302 144.604 86.3769 145.327 86.5529 145.982 86.7484 146.569 86.9636 147.151 87.1787 147.644 87.4378 148.045 87.7458 148.451 88.0587 148.764 88.4351 148.984 88.8849 149.209 89.3347 149.316 89.8822 149.316 90.5276 149.316 91.2511 149.18 91.8769 148.906 92.4049 148.627 92.928 148.251 93.3533 147.776 93.6809 147.297 94.0084 146.745 94.2529 146.114 94.4093 145.484 94.5609 144.804 94.6391 144.076 94.6391 142.99 94.6391 141.939 94.4778 140.922 94.1453 139.91 93.8129 138.991 93.3387 138.175 92.7031 138.175 92.7031 139.201 90.772 139.201 90.772 139.377 90.9431 139.627 91.1387 139.959 91.3538 140.287 91.5689 140.668 91.7693 141.103 91.9502 141.543 92.1311 142.017 92.2876 142.526 92.4147 143.034 92.5418 143.567 92.6053 144.12 92.6053 145.004 92.6053 145.689 92.4489 146.173 92.1409 146.657 91.8329 146.896 91.3782 146.896 90.772 146.896 90.4053 146.808 90.1071 146.628 89.8627 146.447 89.6231 146.188 89.408 145.85 89.2271 145.513 89.0462 145.107 88.88 144.623 88.7333 144.139 88.5867 143.587 88.4302 142.971 88.2689 142.257 88.0831 141.636 87.8876 141.103 87.6773 140.575 87.4671 140.135 87.2178 139.788 86.9195 139.436 86.6262 139.172 86.2791 138.991 85.8831 138.81 85.4871 138.717 85.008 138.717 84.4409 138.717 83.7418 138.849 83.1209 139.118 82.5782 139.387 82.0356 139.754 81.576 140.218 81.2093 140.683 80.8378 141.23 80.5591 141.861 80.3733 142.492 80.1827 143.176 80.0898 143.919 80.0898 144.887 80.0898 145.777 80.2462 146.598 80.5542 147.415 80.8622 148.133 81.2436 148.754 81.7031 148.754 81.7031 147.728 83.556 147.728 83.556M160.219 83.556C160.087 83.4093 159.891 83.2529 159.637 83.0818 159.383 82.9156 159.08 82.7542 158.737 82.6076 158.395 82.4609 158.019 82.3387 157.608 82.2458 157.202 82.1529 156.777 82.104 156.352 82.104 155.393 82.104 154.694 82.28 154.244 82.6271 153.795 82.9791 153.57 83.4631 153.57 84.0791 153.57 84.4311 153.638 84.7147 153.78 84.9347 153.922 85.1596 154.142 85.3551 154.435 85.5213 154.728 85.6876 155.1 85.8391 155.545 85.9662 155.99 86.0933 156.503 86.2302 157.095 86.3769 157.823 86.5529 158.478 86.7484 159.06 86.9636 159.647 87.1787 160.14 87.4378 160.541 87.7458 160.947 88.0587 161.255 88.4351 161.48 88.8849 161.7 89.3347 161.812 89.8822 161.812 90.5276 161.812 91.2511 161.676 91.8769 161.397 92.4049 161.123 92.928 160.747 93.3533 160.268 93.6809 159.793 94.0084 159.236 94.2529 158.605 94.4093 157.975 94.5609 157.295 94.6391 156.572 94.6391 155.481 94.6391 154.435 94.4778 153.418 94.1453 152.406 93.8129 151.487 93.3387 150.666 92.7031 150.666 92.7031 151.697 90.772 151.697 90.772 151.868 90.9431 152.123 91.1387 152.45 91.3538 152.778 91.5689 153.164 91.7693 153.599 91.9502 154.039 92.1311 154.508 92.2876 155.022 92.4147 155.53 92.5418 156.063 92.6053 156.611 92.6053 157.496 92.6053 158.185 92.4489 158.669 92.1409 159.148 91.8329 159.392 91.3782 159.392 90.772 159.392 90.4053 159.304 90.1071 159.119 89.8627 158.938 89.6231 158.679 89.408 158.346 89.2271 158.009 89.0462 157.598 88.88 157.114 88.7333 156.635 88.5867 156.083 88.4302 155.462 88.2689 154.753 88.0831 154.127 87.8876 153.599 87.6773 153.066 87.4671 152.631 87.2178 152.279 86.9195 151.927 86.6262 151.663 86.2791 151.482 85.8831 151.301 85.4871 151.213 85.008 151.213 84.4409 151.213 83.7418 151.345 83.1209 151.614 82.5782 151.883 82.0356 152.25 81.576 152.714 81.2093 153.174 80.8378 153.726 80.5591 154.357 80.3733 154.988 80.1827 155.672 80.0898 156.41 80.0898 157.378 80.0898 158.273 80.2462 159.089 80.5542 159.911 80.8622 160.629 81.2436 161.245 81.7031 161.245 81.7031 160.219 83.556 160.219 83.556M164.247 94.4973C164.247 94.4973 164.247 80.1876 164.247 80.1876 164.247 80.1876 166.506 80.1876 166.506 80.1876 166.506 80.1876 166.506 94.4973 166.506 94.4973 166.506 94.4973 164.247 94.4973 164.247 94.4973 164.247 94.4973 164.247 94.4973 164.247 94.4973M172.167 84.4213C172.167 84.4213 172.167 94.4973 172.167 94.4973 172.167 94.4973 169.913 94.4973 169.913 94.4973 169.913 94.4973 169.913 80.1876 169.913 80.1876 169.913 80.1876 171.683 80.1876 171.683 80.1876 171.683 80.1876 179.867 90.508 179.867 90.508 179.867 90.508 179.867 80.212 179.867 80.212 179.867 80.212 182.145 80.212 182.145 80.212 182.145 80.212 182.145 94.4973 182.145 94.4973 182.145 94.4973 180.268 94.4973 180.268 94.4973 180.268 94.4973 172.167 84.4213 172.167 84.4213 172.167 84.4213 172.167 84.4213 172.167 84.4213M195.565 92.7227C194.358 93.9742 192.964 94.6 191.395 94.6 190.437 94.6 189.552 94.3996 188.736 94.0036 187.914 93.6076 187.2 93.0747 186.594 92.4049 185.993 91.7302 185.519 90.9529 185.176 90.0631 184.834 89.1782 184.663 88.2542 184.663 87.2862 184.663 86.3182 184.834 85.3991 185.176 84.524 185.519 83.6489 185.993 82.8862 186.594 82.2262 187.2 81.5662 187.919 81.048 188.755 80.6667 189.586 80.2804 190.496 80.0898 191.473 80.0898 192.847 80.0898 193.991 80.3733 194.92 80.9453 195.844 81.5173 196.543 82.2751 197.017 83.2138 197.017 83.2138 195.282 84.4604 195.282 84.4604 194.891 83.6831 194.358 83.0964 193.673 82.7102 192.984 82.3191 192.231 82.1284 191.415 82.1284 190.74 82.1284 190.134 82.2702 189.581 82.5587 189.029 82.8471 188.56 83.2284 188.168 83.7076 187.782 84.1818 187.484 84.7391 187.274 85.3698 187.064 86.0004 186.961 86.6604 186.961 87.3449 186.961 88.0684 187.078 88.748 187.313 89.3787 187.548 90.0093 187.87 90.5618 188.281 91.0311 188.692 91.5004 189.176 91.8769 189.743 92.1507 190.305 92.4244 190.916 92.5613 191.576 92.5613 192.3 92.5613 192.999 92.3951 193.659 92.0627 194.324 91.7253 194.959 91.1924 195.565 90.4689 195.565 90.4689 195.565 88.9387 195.565 88.9387 195.565 88.9387 192.564 88.9387 192.564 88.9387 192.564 88.9387 192.564 87.2618 192.564 87.2618 192.564 87.2618 197.462 87.2618 197.462 87.2618 197.462 87.2618 197.462 94.4973 197.462 94.4973 197.462 94.4973 195.565 94.4973 195.565 94.4973 195.565 94.4973 195.565 92.7227 195.565 92.7227M213.659 83.556C213.527 83.4093 213.332 83.2529 213.077 83.0818 212.823 82.9156 212.525 82.7542 212.178 82.6076 211.836 82.4609 211.459 82.3387 211.053 82.2458 210.643 82.1529 210.222 82.104 209.792 82.104 208.839 82.104 208.135 82.28 207.685 82.6271 207.235 82.9791 207.01 83.4631 207.01 84.0791 207.01 84.4311 207.084 84.7147 207.22 84.9347 207.362 85.1596 207.582 85.3551 207.876 85.5213 208.174 85.6876 208.54 85.8391 208.985 85.9662 209.43 86.0933 209.948 86.2302 210.54 86.3769 211.264 86.5529 211.919 86.7484 212.505 86.9636 213.087 87.1787 213.581 87.4378 213.982 87.7458 214.388 88.0587 214.7 88.4351 214.92 88.8849 215.145 89.3347 215.253 89.8822 215.253 90.5276 215.253 91.2511 215.116 91.8769 214.837 92.4049 214.564 92.928 214.187 93.3533 213.713 93.6809 213.234 94.0084 212.681 94.2529 212.051 94.4093 211.42 94.5609 210.74 94.6391 210.012 94.6391 208.927 94.6391 207.876 94.4778 206.859 94.1453 205.847 93.8129 204.928 93.3387 204.111 92.7031 204.111 92.7031 205.138 90.772 205.138 90.772 205.314 90.9431 205.563 91.1387 205.891 91.3538 206.223 91.5689 206.604 91.7693 207.04 91.9502 207.48 92.1311 207.954 92.2876 208.462 92.4147 208.971 92.5418 209.504 92.6053 210.056 92.6053 210.941 92.6053 211.625 92.4489 212.109 92.1409 212.593 91.8329 212.833 91.3782 212.833 90.772 212.833 90.4053 212.745 90.1071 212.564 89.8627 212.383 89.6231 212.124 89.408 211.787 89.2271 211.449 89.0462 211.044 88.88 210.56 88.7333 210.076 88.5867 209.523 88.4302 208.902 88.2689 208.193 88.0831 207.572 87.8876 207.04 87.6773 206.512 87.4671 206.072 87.2178 205.724 86.9195 205.372 86.6262 205.108 86.2791 204.928 85.8831 204.747 85.4871 204.654 85.008 204.654 84.4409 204.654 83.7418 204.786 83.1209 205.055 82.5782 205.324 82.0356 205.69 81.576 206.155 81.2093 206.619 80.8378 207.167 80.5591 207.797 80.3733 208.428 80.1827 209.112 80.0898 209.851 80.0898 210.819 80.0898 211.713 80.2462 212.535 80.5542 213.351 80.8622 214.07 81.2436 214.686 81.7031 214.686 81.7031 213.659 83.556 213.659 83.556M218.436 80.1876C218.436 80.1876 222.386 87.3644 222.386 87.3644 222.386 87.3644 226.375 80.1876 226.375 80.1876 226.375 80.1876 228.854 80.1876 228.854 80.1876 228.854 80.1876 223.515 89.3787 223.515 89.3787 223.515 89.3787 223.515 94.4973 223.515 94.4973 223.515 94.4973 221.256 94.4973 221.256 94.4973 221.256 94.4973 221.256 89.3396 221.256 89.3396 221.256 89.3396 215.957 80.1876 215.957 80.1876 215.957 80.1876 218.436 80.1876 218.436 80.1876 218.436 80.1876 218.436 80.1876 218.436 80.1876M238.891 83.556C238.759 83.4093 238.563 83.2529 238.309 83.0818 238.05 82.9156 237.752 82.7542 237.409 82.6076 237.067 82.4609 236.691 82.3387 236.28 82.2458 235.869 82.1529 235.454 82.104 235.024 82.104 234.065 82.104 233.366 82.28 232.916 82.6271 232.467 82.9791 232.242 83.4631 232.242 84.0791 232.242 84.4311 232.31 84.7147 232.452 84.9347 232.594 85.1596 232.814 85.3551 233.107 85.5213 233.4 85.6876 233.772 85.8391 234.217 85.9662 234.657 86.0933 235.175 86.2302 235.767 86.3769 236.495 86.5529 237.15 86.7484 237.732 86.9636 238.319 87.1787 238.808 87.4378 239.213 87.7458 239.614 88.0587 239.932 88.4351 240.152 88.8849 240.372 89.3347 240.484 89.8822 240.484 90.5276 240.484 91.2511 240.343 91.8769 240.069 92.4049 239.795 92.928 239.419 93.3533 238.94 93.6809 238.465 94.0084 237.908 94.2529 237.277 94.4093 236.647 94.5609 235.967 94.6391 235.244 94.6391 234.153 94.6391 233.102 94.4778 232.09 94.1453 231.078 93.8129 230.159 93.3387 229.338 92.7031 229.338 92.7031 230.364 90.772 230.364 90.772 230.54 90.9431 230.795 91.1387 231.122 91.3538 231.45 91.5689 231.836 91.7693 232.271 91.9502 232.706 92.1311 233.18 92.2876 233.694 92.4147 234.202 92.5418 234.735 92.6053 235.283 92.6053 236.168 92.6053 236.857 92.4489 237.341 92.1409 237.825 91.8329 238.064 91.3782 238.064 90.772 238.064 90.4053 237.972 90.1071 237.791 89.8627 237.61 89.6231 237.356 89.408 237.018 89.2271 236.681 89.0462 236.27 88.88 235.786 88.7333 235.302 88.5867 234.755 88.4302 234.134 88.2689 233.42 88.0831 232.804 87.8876 232.271 87.6773 231.738 87.4671 231.298 87.2178 230.951 86.9195 230.604 86.6262 230.335 86.2791 230.154 85.8831 229.973 85.4871 229.885 85.008 229.885 84.4409 229.885 83.7418 230.017 83.1209 230.286 82.5782 230.555 82.0356 230.922 81.576 231.381 81.2093 231.846 80.8378 232.393 80.5591 233.024 80.3733 233.66 80.1827 234.344 80.0898 235.082 80.0898 236.05 80.0898 236.945 80.2462 237.761 80.5542 238.583 80.8622 239.301 81.2436 239.917 81.7031 239.917 81.7031 238.891 83.556 238.891 83.556M253.318 82.1871C253.318 82.1871 248.566 82.1871 248.566 82.1871 248.566 82.1871 248.566 94.4973 248.566 94.4973 248.566 94.4973 246.288 94.4973 246.288 94.4973 246.288 94.4973 246.288 82.1871 246.288 82.1871 246.288 82.1871 241.511 82.1871 241.511 82.1871 241.511 82.1871 241.511 80.1876 241.511 80.1876 241.511 80.1876 253.318 80.1876 253.318 80.1876 253.318 80.1876 253.318 82.1871 253.318 82.1871 253.318 82.1871 253.318 82.1871 253.318 82.1871M265.227 92.5027C265.227 92.5027 265.227 94.4973 265.227 94.4973 265.227 94.4973 255.415 94.4973 255.415 94.4973 255.415 94.4973 255.415 80.1876 255.415 80.1876 255.415 80.1876 265.046 80.1876 265.046 80.1876 265.046 80.1876 265.046 82.1871 265.046 82.1871 265.046 82.1871 257.674 82.1871 257.674 82.1871 257.674 82.1871 257.674 86.2547 257.674 86.2547 257.674 86.2547 264.064 86.2547 264.064 86.2547 264.064 86.2547 264.064 88.132 264.064 88.132 264.064 88.132 257.674 88.132 257.674 88.132 257.674 88.132 257.674 92.5027 257.674 92.5027 257.674 92.5027 265.227 92.5027 265.227 92.5027 265.227 92.5027 265.227 92.5027 265.227 92.5027M279.776 94.4973C279.776 94.4973 279.776 84.2013 279.776 84.2013 279.776 84.2013 275.528 91.9991 275.528 91.9991 275.528 91.9991 274.276 91.9991 274.276 91.9991 274.276 91.9991 270.004 84.2013 270.004 84.2013 270.004 84.2013 270.004 94.4973 270.004 94.4973 270.004 94.4973 267.75 94.4973 267.75 94.4973 267.75 94.4973 267.75 80.1876 267.75 80.1876 267.75 80.1876 270.165 80.1876 270.165 80.1876 270.165 80.1876 274.902 88.9387 274.902 88.9387 274.902 88.9387 279.64 80.1876 279.64 80.1876 279.64 80.1876 282.055 80.1876 282.055 80.1876 282.055 80.1876 282.055 94.4973 282.055 94.4973 282.055 94.4973 279.776 94.4973 279.776 94.4973 279.776 94.4973 279.776 94.4973 279.776 94.4973M293.925 83.556C293.788 83.4093 293.592 83.2529 293.338 83.0818 293.084 82.9156 292.786 82.7542 292.444 82.6076 292.101 82.4609 291.725 82.3387 291.314 82.2458 290.904 82.1529 290.483 82.104 290.058 82.104 289.1 82.104 288.4 82.28 287.951 82.6271 287.501 82.9791 287.276 83.4631 287.276 84.0791 287.276 84.4311 287.344 84.7147 287.486 84.9347 287.628 85.1596 287.843 85.3551 288.141 85.5213 288.435 85.6876 288.806 85.8391 289.251 85.9662 289.691 86.0933 290.209 86.2302 290.801 86.3769 291.524 86.5529 292.18 86.7484 292.766 86.9636 293.348 87.1787 293.842 87.4378 294.248 87.7458 294.648 88.0587 294.961 88.4351 295.186 88.8849 295.406 89.3347 295.519 89.8822 295.519 90.5276 295.519 91.2511 295.377 91.8769 295.103 92.4049 294.829 92.928 294.453 93.3533 293.974 93.6809 293.495 94.0084 292.942 94.2529 292.312 94.4093 291.681 94.5609 291.001 94.6391 290.278 94.6391 289.188 94.6391 288.136 94.4778 287.124 94.1453 286.108 93.8129 285.193 93.3387 284.372 92.7031 284.372 92.7031 285.399 90.772 285.399 90.772 285.575 90.9431 285.829 91.1387 286.156 91.3538 286.484 91.5689 286.87 91.7693 287.305 91.9502 287.74 92.1311 288.215 92.2876 288.723 92.4147 289.236 92.5418 289.764 92.6053 290.317 92.6053 291.202 92.6053 291.891 92.4489 292.37 92.1409 292.854 91.8329 293.099 91.3782 293.099 90.772 293.099 90.4053 293.006 90.1071 292.825 89.8627 292.644 89.6231 292.385 89.408 292.048 89.2271 291.715 89.0462 291.304 88.88 290.82 88.7333 290.336 88.5867 289.789 88.4302 289.168 88.2689 288.454 88.0831 287.833 87.8876 287.305 87.6773 286.772 87.4671 286.332 87.2178 285.985 86.9195 285.633 86.6262 285.369 86.2791 285.188 85.8831 285.008 85.4871 284.915 85.008 284.915 84.4409 284.915 83.7418 285.052 83.1209 285.32 82.5782 285.589 82.0356 285.956 81.576 286.416 81.2093 286.88 80.8378 287.428 80.5591 288.058 80.3733 288.694 80.1827 289.378 80.0898 290.116 80.0898 291.084 80.0898 291.974 80.2462 292.796 80.5542 293.617 80.8622 294.336 81.2436 294.952 81.7031 294.952 81.7031 293.925 83.556 293.925 83.556" fill="#323539" fill-rule="nonzero" fill-opacity="1" transform="matrix(1.00227 0 0 1 977.302 -10.9381)"/></g></g></g></g></g></svg>