<svg width="114" height="114" xmlns="http://www.w3.org/2000/svg" xmlns:xlink="http://www.w3.org/1999/xlink" xml:space="preserve" overflow="hidden"><g transform="translate(-912 -566)"><g><g><g><g><path d="M0 60.3785C0 57.8627 0 55.3469 0 52.8312 0.0545083 52.6362 0.132078 52.4454 0.163525 52.2463 0.719091 48.7388 1.01469 45.1665 1.86796 41.7345 4.79883 29.946 11.4027 20.4448 20.6167 12.6795 28.4387 6.08607 37.4221 2.05245 47.5564 0.616364 49.2399 0.377365 50.9339 0.203358 52.6215 0 55.2065 0 57.7935 0 60.3785 0 62.2695 0.232709 64.1689 0.408813 66.0494 0.704416 78.8505 2.72122 89.488 8.74649 98.2178 18.2247 105.715 26.3632 110.545 35.8288 112.201 46.8311 112.491 48.7577 112.734 50.6907 112.998 52.6215 112.998 55.1373 112.998 57.6531 112.998 60.1688 112.929 60.5755 112.826 60.9823 112.797 61.3911 112.467 66.1144 111.499 70.7057 109.979 75.1817 106.908 84.2175 101.568 91.7543 94.595 98.1674 86.618 105.503 77.3432 110.279 66.5778 111.985 64.7245 112.279 62.8628 112.522 61.0074 112.79 57.8627 112.79 54.718 112.79 51.5733 112.79 51.2735 112.723 50.9758 112.618 50.6718 112.591 46.3489 112.193 42.1287 111.306 38.0133 109.924 29.2186 106.971 21.7971 101.889 15.4322 95.2219 7.3167 86.7249 2.22017 76.7205 0.614267 65.0159 0.400427 63.4708 0.203358 61.9236 0 60.3785ZM56.825 110.348C86.1295 110.784 111.352 85.7207 110.583 55.1687 109.872 26.9502 86.0267 2.21807 55.5335 2.79879 27.7489 3.32711 2.912 26.4282 2.88265 56.6384 2.8554 86.5697 27.7028 110.883 56.825 110.348Z" fill="#4874CB" fill-rule="nonzero" fill-opacity="1" transform="matrix(1 0 0 1.00186 913 567)"/><path d="M56.4853 18.8201C77.3327 18.1639 94.8969 35.8917 94.8424 56.9403 94.7879 77.7792 77.3411 94.941 56.718 94.8865 35.3885 94.8298 18.5224 77.3473 18.579 56.7809 18.6377 35.3298 36.6107 18.0066 56.4853 18.8201ZM57.0744 21.73C37.6527 21.2918 21.7111 37.3697 21.5455 56.4832 21.3799 75.6995 37.0342 92.0143 56.7201 91.9912 76.5444 91.9682 92.1778 75.471 91.8654 56.2442 91.5426 36.5059 75.0014 21.4637 57.0744 21.73Z" fill="#4874CB" fill-rule="nonzero" fill-opacity="1" transform="matrix(1 0 0 1.00186 913 567)"/><path d="M45.1329 102.687C44.4222 102.553 43.6989 102.457 43.0008 102.277 41.8289 101.97 40.8016 101.434 40.0972 100.375 38.8435 98.4861 39.2146 95.8173 41.0637 94.4902 42.4389 93.5028 44.0239 93.834 45.5061 94.2261 48.5166 95.0227 49.7053 97.2135 48.9737 100.547 48.7368 101.631 48.3929 102.7 47.9988 103.74 47.2965 105.593 45.091 106.994 43.1245 106.916 40.5815 106.817 38.5269 105.4 37.8833 103.293 37.8225 103.096 37.6946 102.847 37.7617 102.694 38.0384 102.061 38.376 101.455 38.6925 100.838 39.1181 101.237 39.6947 101.557 39.942 102.046 40.9148 103.97 42.1727 104.784 43.7534 104.199 44.3383 103.983 44.8059 103.442 45.3258 103.05 45.2608 102.929 45.1979 102.807 45.1329 102.687ZM44.5501 100.025C45.7933 100.027 46.7011 99.3016 46.7367 98.2785 46.764 97.4693 44.9862 96.1045 43.8645 96.0731 43.0176 96.05 42.0993 97.071 42.0825 98.0521 42.0637 99.1779 43.1182 100.023 44.5501 100.025Z" fill="#4874CB" fill-rule="nonzero" fill-opacity="1" transform="matrix(1 0 0 1.00186 913 567)"/><path d="M68.1837 103.331C68.2465 106.501 66.2905 109.05 63.6846 108.96 60.2716 108.841 58.3072 107.551 57.6384 104.195 57.2778 102.383 56.9256 100.549 57.6468 98.7293 58.3239 97.0207 59.4476 95.8362 61.3638 95.616 63.4938 95.3728 65.387 95.6349 66.5945 97.7628 67.5883 99.5071 68.148 101.335 68.1837 103.331ZM60.0787 102.002C60.2632 102.742 60.4078 103.717 60.7558 104.61 61.2401 105.851 62.1521 106.413 63.1291 106.287 64.1983 106.149 65.2633 105.138 65.3723 103.96 65.5337 102.249 65.1207 100.622 64.2004 99.1737 63.7224 98.4211 62.9404 98.0605 62.0284 98.2031 61.0766 98.3519 60.607 99.0438 60.3952 99.9054 60.2485 100.511 60.2045 101.142 60.0787 102.002Z" fill="#4874CB" fill-rule="nonzero" fill-opacity="1" transform="matrix(1 0 0 1.00186 913 567)"/><path d="M76.232 98.8383C75.1964 96.6433 74.3033 94.7607 73.4206 92.8717 73.1502 92.2931 73.2236 91.8843 73.8882 91.5468 75.6282 90.6642 77.3306 89.7103 79.035 88.7627 79.8841 88.2909 80.5256 88.597 81.0288 89.2784 81.5613 90.0017 81.3768 90.6998 80.6828 91.1883 80.0623 91.6243 79.3704 91.9661 78.6954 92.3183 77.9889 92.6872 77.2635 93.0185 76.4668 93.4042 76.6932 94.0185 76.905 94.5929 77.1901 95.3686 77.9008 94.8655 78.5507 94.4881 79.1021 93.9996 81.0833 92.2533 83.8359 92.6747 85.1714 94.9619 86.3119 96.9179 86.1337 99.4589 84.7458 101.031 83.0393 102.964 80.599 103.643 78.5256 102.698 77.8316 102.381 76.9029 102.107 77.253 100.996 77.5591 100.021 78.2593 99.765 79.4753 100.109 81.2426 100.608 82.0518 100.306 83.077 98.767 83.6745 97.8676 83.4984 96.7251 82.6368 95.9431 81.8086 95.1904 81.1524 95.2617 80.144 96.0374 78.9407 96.9641 77.6765 97.8089 76.232 98.8383Z" fill="#4874CB" fill-rule="nonzero" fill-opacity="1" transform="matrix(1 0 0 1.00186 913 567)"/><path d="M20.3714 23.1367C20.992 23.6797 21.6189 24.2164 22.231 24.7678 22.8537 25.3275 23.491 25.8747 24.0717 26.4764 25.055 27.4953 26.0068 28.5435 27.837 28.164 27.3003 29.7616 26.2332 30.51 25.1179 31.1914 24.9963 31.2647 24.5497 31.0677 24.4659 30.8937 23.4344 28.7783 21.4176 27.5749 19.8767 25.9397 18.9437 24.9481 18.0569 23.7824 16.4867 23.6713 16.2938 23.6587 16.1198 23.3925 15.8137 23.1409 16.7362 22.1576 17.5873 21.1996 18.5119 20.3148 18.6775 20.1555 19.1576 20.2415 19.4616 20.3232 21.7698 20.9522 24.0717 21.6105 26.447 22.1346 24.9208 20.8746 24.2478 18.558 21.6692 18.6314 20.8033 18.6565 21.0172 17.7509 21.3253 17.3777 21.8599 16.7278 22.5874 16.2372 23.1786 15.7278 25.7992 18.644 28.3066 21.4008 30.7595 24.2059 31.0278 24.5141 30.9922 25.0885 31.097 25.5393 30.6547 25.5623 30.1788 25.7028 29.7762 25.5875 26.8307 24.7405 23.8998 23.8411 20.9647 22.9627 20.839 22.925 20.7027 22.9187 20.5727 22.8977 20.5056 22.9795 20.4385 23.057 20.3714 23.1367Z" fill="#4874CB" fill-rule="nonzero" fill-opacity="1" transform="matrix(1 0 0 1.00186 913 567)"/><path d="M90.6537 17.4385C92.8361 19.4238 95.1883 20.8977 96.4735 23.3778 96.876 24.1535 97.0647 25.2122 96.9179 26.0655 96.6223 27.7636 95.029 28.577 93.2135 28.206 91.7669 27.9104 91.7313 27.902 91.3832 29.3339 91.138 30.3444 90.9556 31.3737 90.8403 32.4073 90.7711 33.0174 90.4818 33.1704 89.9535 33.1537 88.4859 33.1075 87.5949 31.531 88.2951 30.1788 88.6306 29.5309 89.0331 28.9167 89.3581 28.2626 89.8528 27.2668 89.7815 26.3129 88.9262 25.3233 87.8654 26.1535 86.597 26.7363 86.337 28.3087 86.2867 28.6085 86.0666 28.9775 85.815 29.1117 85.6683 29.1913 85.2469 28.9272 85.0519 28.7196 84.4062 28.0362 83.7584 27.3443 83.2028 26.5896 82.6787 25.8768 82.9386 25.3527 83.8024 25.3904 84.6724 25.4281 85.2322 25.0403 85.7836 24.4491 86.8758 23.2751 87.9891 22.1157 89.1505 21.0109 89.9241 20.2771 90.4545 19.4888 90.421 18.3819 90.4105 18.1555 90.5279 17.9228 90.6537 17.4385ZM94.7837 24.2667C94.7711 23.4721 93.2889 21.8012 92.5971 21.8033 91.9828 21.8033 90.2784 23.577 90.3098 24.1828 90.3581 25.0864 91.6872 26.2898 92.6202 26.2751 93.7481 26.2542 94.8005 25.2772 94.7837 24.2667Z" fill="#4874CB" fill-rule="nonzero" fill-opacity="1" transform="matrix(1 0 0 1.00186 913 567)"/><path d="M99.0375 36.2124C99.18 37.5814 99.3184 38.6213 99.3918 39.6632 99.5197 41.4347 98.5364 42.5626 96.7439 42.7597 94.0709 43.0553 91.9744 41.4557 91.4419 38.6695 91.3183 38.0238 91.2596 37.3508 91.2889 36.6946 91.3183 36.0447 91.2784 35.617 90.5279 35.3591 89.8549 35.1285 89.8738 34.5457 90.4776 34.1893 91.3749 33.6589 92.3057 33.162 93.2701 32.7721 93.595 32.64 94.0688 32.8706 94.4755 32.9356 94.377 33.3046 94.4001 33.8057 94.1632 34.0237 92.6872 35.3843 92.9346 37.0196 93.3225 38.6863 93.3833 38.9483 93.507 39.2817 93.7103 39.4095 94.289 39.7743 94.9661 40.3634 95.528 40.2901 96.4295 40.1706 96.6475 39.2334 96.5783 38.3802 96.4798 37.1307 96.2534 35.8875 96.1968 34.6359 96.1318 33.2061 96.4819 31.9461 97.9473 31.2501 100.379 30.0928 102.947 31.5582 103.539 34.464 103.807 35.7868 104.14 37.0992 104.358 38.4326 104.411 38.7533 104.214 39.2858 103.958 39.4515 103.388 39.8246 102.719 40.0657 102.065 40.2817 101.813 40.3634 101.49 40.2314 101.201 40.1957 101.253 39.9001 101.207 39.5165 101.375 39.3215 102.954 37.4829 102.27 35.6107 101.509 33.7344 101.249 33.0929 100.738 32.5876 100.073 32.8329 99.6811 32.9776 99.3163 33.5876 99.2136 34.0489 99.0354 34.8518 99.0689 35.703 99.0375 36.2124Z" fill="#4874CB" fill-rule="nonzero" fill-opacity="1" transform="matrix(1 0 0 1.00186 913 567)"/><path d="M4.43404 50.4454C4.73594 48.1896 4.998 45.7388 5.41519 43.3174 5.6521 41.94 6.6018 41.2733 8.10707 41.1182 10.6186 40.8582 13.0401 41.3572 15.3965 42.1433 16.9919 42.6758 18.0779 44.2796 17.9165 46.091 17.7529 47.9149 17.3001 49.7179 16.9186 51.5167 16.8368 51.9003 16.5265 52.2379 16.4238 52.4161 14.3797 51.9779 12.4761 51.4978 10.5474 51.1791 8.60393 50.8584 6.63744 50.7032 4.43404 50.4454ZM15.6334 49.6844C15.82 49.0135 16.0192 48.4579 16.1261 47.8835 16.4804 45.982 16.0883 45.0365 14.3022 44.3069 13.0694 43.8037 11.7088 43.5564 10.3817 43.3509 7.69616 42.9379 7.19301 43.3383 6.66889 46.0407 6.55777 46.6109 6.50955 47.1917 6.41731 47.8772 9.5159 48.4852 12.5097 49.0722 15.6334 49.6844Z" fill="#4874CB" fill-rule="nonzero" fill-opacity="1" transform="matrix(1 0 0 1.00186 913 567)"/><path d="M47.3237 7.45507C47.5061 9.17208 47.72 10.887 47.8625 12.6061 47.9715 13.9206 48.2168 15.1533 49.4244 15.9919 48.3699 16.9898 47.2105 17.0024 46.0721 16.9563 45.9065 16.95 45.569 16.3315 45.6424 16.1072 46.3614 13.929 45.6445 11.8136 45.3887 9.692 45.2021 8.1448 44.7472 6.63115 44.3908 5.00429 46.1518 4.02314 47.4516 4.21811 48.8583 5.96028 49.7997 7.12592 50.6383 8.37542 51.5607 9.55573 51.98 10.0924 52.4915 10.5578 53.1834 10.9562 53.0219 9.31673 52.9444 7.66052 52.6551 6.04414 52.5544 5.47599 51.936 4.998 51.4894 4.39002 52.4475 3.27469 53.7599 3.78833 55.0912 3.78414 53.7012 6.37538 54.8123 8.96872 54.8019 11.5327 54.7977 12.6124 54.9633 13.6921 54.9465 14.7697 54.9402 15.147 54.6111 15.5181 54.4308 15.8913 54.1058 15.6921 53.674 15.5705 53.4727 15.2854 51.8584 13.0086 50.2923 10.6983 48.6948 8.41106 48.4118 8.00434 48.0491 7.65423 47.7221 7.27686 47.5879 7.33766 47.4558 7.39636 47.3237 7.45507Z" fill="#4874CB" fill-rule="nonzero" fill-opacity="1" transform="matrix(1 0 0 1.00186 913 567)"/><path d="M73.7498 19.8347C76.318 17.3483 78.1084 14.5579 79.4816 11.4908 79.8883 10.5809 80.0937 10.4342 80.9114 10.9541 82.9135 12.2287 84.9177 13.495 86.9031 14.7969 88.1274 15.5999 88.0205 16.7047 86.6075 17.4741 85.9492 15.5349 84.2175 14.7822 82.6221 13.8577 82.1483 13.5831 81.8611 13.6187 81.4564 14.0086 79.5738 15.82 79.5927 16.1974 81.8925 17.4343 82.3558 17.6838 82.9324 17.7529 83.467 17.8242 83.9366 17.8871 84.4209 17.8368 84.8988 17.8368 84.8842 19.3903 84.0393 20.5811 82.6955 21.0088 82.2112 19.5769 81.2405 18.5517 79.8547 17.9961 79.5193 17.862 78.8652 17.9878 78.6241 18.2456 76.861 20.1345 76.9532 20.6377 79.014 22.1681 80.0518 22.9396 81.0875 23.4533 82.3894 22.8956 82.5131 22.8432 82.664 22.8453 82.8024 22.8453 82.9009 22.8453 82.9973 22.8851 83.0896 22.9061 83.3642 24.3736 82.2363 25.4219 80.8946 24.8935 80.1566 24.6021 79.4732 24.1514 78.8086 23.7069 77.4752 22.8138 76.1544 21.8977 74.863 20.9459 74.4123 20.6167 74.0601 20.1513 73.7498 19.8347Z" fill="#4874CB" fill-rule="nonzero" fill-opacity="1" transform="matrix(1 0 0 1.00186 913 567)"/><path d="M10.5599 68.0893C11.4237 66.7643 12.2392 66.4687 13.6942 66.7455 13.9499 68.1438 14.1847 69.4436 14.43 70.7413 14.56 71.4332 15.0506 71.7057 15.6544 71.4835 16.8997 71.0286 18.5161 71.2403 19.166 69.6114 19.21 69.5002 19.9291 69.473 19.9815 69.5799 20.5476 70.7476 21.0423 71.9489 21.6838 73.4311 19.1303 72.8252 17.3337 74.0328 15.4175 74.6366 13.4845 75.2446 11.3356 75.4437 9.77377 77.3138 9.3398 76.6995 8.8618 76.2236 8.62699 75.6492 7.83453 73.7183 7.08608 71.7644 6.40683 69.7916 6.11542 68.9447 5.91416 68.0348 7.14059 67.5652 8.21608 67.1522 8.79052 67.4163 8.52846 68.5233 8.14061 70.1585 8.80729 71.45 9.46768 72.7959 9.5138 72.8902 9.54106 73.0076 9.61443 73.0705 10.562 73.8756 11.3356 72.9573 12.1617 72.754 12.6396 72.6366 13.4342 72.5443 13.1093 71.6114 12.6061 70.1753 12.3315 68.5946 10.5599 68.0893Z" fill="#4874CB" fill-rule="nonzero" fill-opacity="1" transform="matrix(1 0 0 1.00186 913 567)"/><path d="M5.26844 61.5546C8.51378 61.3659 11.539 61.1584 14.5705 61.0305 15.6041 60.9865 16.212 60.5294 16.2058 59.5525 16.2016 58.7076 16.0338 57.8292 15.7382 57.0388 15.6166 56.7117 14.9772 56.3784 14.5768 56.3826 12.1009 56.4036 9.62282 56.4937 7.15108 56.6363 6.8387 56.6551 6.57035 57.1373 6.25169 57.3616 5.95609 57.5692 5.5892 57.8921 5.31456 57.8417 5.07137 57.7956 4.79883 57.326 4.73594 57.0052 4.54096 56.0115 4.4613 55.001 5.1133 54.0304 6.84499 55.2358 8.75488 54.6195 10.5977 54.6258 11.8535 54.6299 13.1093 54.523 14.363 54.5482 16.1261 54.5817 17.2645 55.3952 17.5349 57.1436 17.755 58.5608 17.688 60.0556 17.5202 61.4896 17.3924 62.5777 16.5999 63.2318 15.4175 63.324 13.1575 63.498 10.8975 63.6783 8.64377 63.9257 7.90161 64.0075 7.16156 64.2465 6.45924 64.5127 5.73386 64.7874 5.2915 64.7245 5.26844 63.8544 5.25167 63.0955 5.26844 62.3366 5.26844 61.5546Z" fill="#4874CB" fill-rule="nonzero" fill-opacity="1" transform="matrix(1 0 0 1.00186 913 567)"/><path d="M22.6755 34.8287C22.3589 34.6338 22.1597 34.4933 21.948 34.3801 20.187 33.4304 19.8578 33.5059 18.7341 35.1034 17.4783 36.8875 17.8242 37.921 19.9186 38.6758 20.1765 38.768 20.426 38.8875 20.8662 39.072 20.0905 40.1894 19.363 41.2356 18.6733 42.2293 18.3525 42.1056 18.2645 42.0993 18.2309 42.0532 15.8095 38.6338 13.3839 35.2208 10.9855 31.7889 10.7822 31.4974 10.5641 30.8937 10.6941 30.7553 10.9792 30.4492 11.5222 30.1347 11.8933 30.1997 14.5349 30.6651 17.1596 31.2396 19.7949 31.7469 20.7845 31.9377 21.7971 32.0174 22.7887 32.1998 24.0298 32.4262 24.164 32.7658 23.47 33.7721 23.2352 34.1138 22.9732 34.4346 22.6755 34.8287ZM16.537 33.1537C15.7886 32.9629 15.1659 32.8035 14.5412 32.6442 14.4992 32.7092 14.4594 32.7742 14.4175 32.8413 14.8368 33.3109 15.254 33.7784 15.7131 34.2941 15.906 34.0635 16.0213 33.9419 16.1198 33.8057 16.2393 33.6337 16.3441 33.4555 16.537 33.1537Z" fill="#4874CB" fill-rule="nonzero" fill-opacity="1" transform="matrix(1 0 0 1.00186 913 567)"/><path d="M106.935 67.5526C106.578 68.9971 106.22 70.4416 105.807 72.1124 103.748 70.299 102.115 72.0412 100.327 72.1104 101.43 73.3787 102.302 74.7876 103.981 75.3117 104.245 75.3934 104.553 75.8106 104.581 76.0999 104.694 77.2341 104.423 78.2342 103.465 78.6975 101.734 76.8002 100.191 74.8504 98.3687 73.2068 97.1423 72.0999 95.551 71.4017 93.7648 72.3431 92.9263 72.7833 92.53 72.4898 92.7082 71.5779 92.9409 70.3829 93.2491 69.2004 93.6097 68.0369 93.704 67.7329 94.073 67.4457 94.3854 67.3115 94.5112 67.257 94.876 67.5987 95.0395 67.8273 95.3456 68.257 95.4923 69.0201 95.8655 69.1396 96.9704 69.4898 98.1632 69.8 99.3016 69.7392 100.713 69.6659 102.13 69.2969 103.49 68.8839 104.564 68.5568 105.555 67.9656 106.583 67.4939 106.702 67.5086 106.817 67.5316 106.935 67.5526Z" fill="#4874CB" fill-rule="nonzero" fill-opacity="1" transform="matrix(1 0 0 1.00186 913 567)"/><path d="M106.409 60.4393C103.524 60.3407 100.639 60.2212 97.7523 60.1772 97.4483 60.173 97.1486 60.6301 96.8278 60.846 96.5028 61.064 96.1087 61.454 95.8299 61.3911 95.5657 61.3303 95.247 60.7873 95.2408 60.4498 95.2156 59.2715 95.2848 58.0891 95.3875 56.913 95.4169 56.5776 95.6768 56.261 95.92 55.7495 97.6433 57.8585 99.9557 57.2359 102.038 57.5147 103.004 57.6447 103.987 57.8082 104.952 57.7558 105.497 57.7243 106.233 57.412 106.486 56.9885 106.688 56.653 106.402 55.8857 106.121 55.4413 105.882 55.0597 105.348 54.8668 104.943 54.5901 105.004 54.4475 105.065 54.305 105.126 54.1624 105.568 53.9381 105.987 53.6278 106.455 53.5083 107.794 53.1666 108.268 53.5377 108.214 54.9046 108.113 57.521 107.935 60.1332 107.841 62.7496 107.801 63.8314 107.138 64.1144 106.266 64.1312 105.96 64.1375 105.524 63.976 105.384 63.7475 105.274 63.5714 105.507 63.1542 105.639 62.8691 105.954 62.194 106.302 61.5336 106.635 60.867 106.562 60.7202 106.484 60.5797 106.409 60.4393Z" fill="#4874CB" fill-rule="nonzero" fill-opacity="1" transform="matrix(1 0 0 1.00186 913 567)"/><path d="M29.227 91.3455C28.6378 90.7941 28.1263 90.3224 27.6211 89.8465 27.0152 89.2763 27.2584 88.7165 27.6588 88.1714 28.0424 87.6473 28.5121 87.4733 29.0928 87.8842 30.0383 88.5509 30.944 88.2155 31.858 87.792 32.9063 87.3077 33.4115 87.5111 34.3549 88.5111 35.0761 89.2742 34.4849 89.813 34.1138 90.3329 32.0467 93.2323 29.9293 96.0961 27.8538 98.9913 27.3359 99.7146 26.816 99.9432 26.0319 99.375 24.8726 98.5343 24.6168 97.9557 25.2143 97.0815 26.5141 95.1842 27.8517 93.3099 29.227 91.3455Z" fill="#4874CB" fill-rule="nonzero" fill-opacity="1" transform="matrix(1 0 0 1.00186 913 567)"/><path d="M30.967 10.0463C32.3339 9.5767 33.5939 9.14273 34.835 8.71714 34.9503 8.97291 35.0174 9.05258 34.9986 9.08822 34.2208 10.5285 34.7323 11.8283 35.3738 13.1491 35.9671 14.3692 36.4409 15.6502 37.0279 16.8745 37.7743 18.4385 38.5584 18.7194 40.1391 18.0842 41.9547 17.3546 42.2104 16.8116 41.5249 14.9919 40.9358 13.4279 40.3802 11.8451 39.6821 10.3293 39.2167 9.31883 38.529 8.40896 37.8749 7.34605 38.485 6.55987 39.4557 6.4257 40.6569 6.54939 40.1768 8.37332 41.1622 9.82198 41.6737 11.3839 42.1601 12.8724 42.6989 14.3462 43.0972 15.8577 43.5543 17.5957 43.0029 18.5685 41.3593 19.2519 41.2314 19.3043 41.1014 19.3547 40.9714 19.4071 37.8057 20.6943 35.7554 20.2142 34.5394 16.6418 34.225 15.7194 33.7973 14.8388 33.4346 13.9332 32.9943 12.8346 32.6337 11.6983 31.5666 10.9834 31.3339 10.8262 31.2333 10.4761 30.967 10.0463Z" fill="#4874CB" fill-rule="nonzero" fill-opacity="1" transform="matrix(1 0 0 1.00186 913 567)"/><path d="M66.4184 5.0546C67.7308 5.39213 68.8063 5.64371 69.8629 5.9498 70.5527 6.14896 70.6449 6.71082 70.234 7.16785 69.517 7.9666 69.5946 8.88696 69.6009 9.82198 69.6072 10.9394 69.5673 12.0568 69.6176 13.1722 69.6407 13.6543 69.8378 14.1302 69.9552 14.6082 70.06 14.6313 70.1648 14.6544 70.2696 14.6753 71.0873 13.6061 71.9112 12.5411 72.7183 11.4656 73.5297 10.3838 74.4521 9.34609 74.1942 7.78211 75.5381 7.64375 76.6115 7.85759 77.5172 8.93727 74.7876 10.6815 73.4269 13.4845 71.5045 15.8074 71.016 16.3986 70.5631 17.0255 70.0202 17.5643 69.7539 17.8305 69.2927 18.1156 68.9719 18.0653 68.3723 17.971 67.8524 17.6817 67.7937 16.864 67.6029 14.2917 67.3576 11.7214 67.0788 9.1574 66.9404 7.89113 66.6763 6.63744 66.4184 5.0546Z" fill="#4874CB" fill-rule="nonzero" fill-opacity="1" transform="matrix(1 0 0 1.00186 913 567)"/><path d="M106.379 43.5794C106.472 43.7052 106.803 43.9757 106.887 44.309 107.22 45.6214 107.501 46.9506 107.738 48.2839 107.786 48.5544 107.562 48.8751 107.463 49.1707 107.182 49.0512 106.797 49.0114 106.637 48.7996 106.205 48.2252 105.725 48.0344 105.015 48.1749 102.524 48.6634 100.025 49.1078 97.528 49.5691 96.855 49.6927 96.4211 49.9758 96.3351 50.764 96.2953 51.1309 95.8592 51.4538 95.6034 51.7976 95.3288 51.4747 94.9032 51.1896 94.8089 50.8206 94.4483 49.4097 94.1275 47.9799 93.9409 46.5396 93.8822 46.0973 94.2973 45.592 94.4944 45.114 94.8655 45.418 95.3728 45.6507 95.5783 46.0407 95.9326 46.7137 96.3393 46.9086 97.0752 46.7682 99.5343 46.3007 102.029 45.9862 104.455 45.3887 105.153 45.2168 105.664 44.2817 106.379 43.5794Z" fill="#4874CB" fill-rule="nonzero" fill-opacity="1" transform="matrix(1 0 0 1.00186 913 567)"/><path d="M61.9571 16.3211C60.5609 16.1512 59.4225 16.0632 58.303 15.8598 57.5671 15.7257 57.3449 15.1617 57.9319 14.6648 58.7914 13.9353 58.8082 12.9688 58.9068 12.0149 59.0996 10.1427 59.2841 8.2685 59.3994 6.39006 59.4267 5.95399 59.2296 5.46132 59.0116 5.06089 58.5084 4.13844 58.6699 3.74221 59.7328 3.80091 60.6615 3.85122 61.5965 4.02733 62.4959 4.27262 63.2611 4.48017 63.3974 5.15104 62.7412 5.58082 62.0452 6.03785 61.9404 6.66889 61.8544 7.35863 61.6385 9.08822 61.3701 10.8136 61.2548 12.5495 61.2024 13.3441 61.4477 14.1596 61.586 14.9625 61.6531 15.3273 61.781 15.6816 61.9571 16.3211Z" fill="#4874CB" fill-rule="nonzero" fill-opacity="1" transform="matrix(1 0 0 1.00186 913 567)"/><path d="M49.0365 71.4332C42.1475 71.6911 35.3508 71.3367 28.6903 72.8923 27.8538 73.0873 27.1871 72.8819 26.8747 72.0957 26.4533 71.0328 26.1221 69.9321 25.8391 68.8252 25.7887 68.6239 26.1116 68.1522 26.3443 68.083 27.6043 67.7077 28.8747 67.2423 30.1683 67.1375 34.1306 66.8167 38.1034 66.5987 42.0763 66.4352 44.4369 66.3388 46.8059 66.4163 49.2839 66.4163 49.3992 59.6783 49.9737 53.24 52.8878 47.2294 52.7473 47.1665 52.6089 47.1036 52.4685 47.0407 52.0764 47.4893 51.5796 47.8835 51.3133 48.395 50.1854 50.5544 49.0428 52.7159 48.0827 54.9528 47.6843 55.8815 47.7095 56.999 47.59 58.0367 47.0784 62.4959 44.9715 64.909 40.5353 65.5945 38.137 65.9656 35.6589 66.0956 33.2375 65.9593 29.424 65.7434 26.0382 62.2842 25.4554 58.1898 24.8034 53.6152 24.9879 49.0764 26.4009 44.6277 26.7573 43.5081 27.3317 42.636 28.3758 42.049 33.5709 39.1286 38.8791 39.1076 44.2524 41.4536 45.852 42.1517 46.1979 43.7178 46.5145 45.2419 46.59 45.6109 46.6319 45.9862 46.6759 46.2818 48.6739 43.7241 50.6697 41.1748 52.6865 38.594 52.3175 37.9106 51.8982 38.0217 51.3888 38.4703 50.112 39.5919 48.6948 40.4347 46.9883 40.7576 45.9233 40.9588 45.1455 40.5982 44.5585 39.7408 43.9757 38.8917 44.2901 38.1579 44.8876 37.4703 46.1937 35.9671 47.4705 34.4409 48.808 32.9671 50.7032 30.8748 51.5712 28.3318 52.2379 25.663 52.4035 24.9963 52.8165 24.3002 53.3134 23.8285 54.2442 22.9459 55.9004 22.8013 56.825 23.4491 57.9151 24.2122 58.4455 25.3296 58.1311 26.6378 57.7495 28.2248 57.1897 29.7658 56.7348 31.336 56.5818 31.8622 56.3763 32.4325 56.4434 32.9503 56.5901 34.0698 57.2862 34.464 58.6594 34.3717 64.4393 33.9776 70.2172 33.5457 76.0014 33.2061 77.4564 33.1201 78.9344 33.248 80.3872 33.4052 82.0707 33.5876 83.3328 35.074 83.2573 36.6045 83.1965 37.854 82.4397 38.6695 81.1944 38.6045 78.687 38.4745 76.1838 38.1097 73.6785 38.095 69.8818 38.072 66.0746 38.1454 62.2884 38.4263 60.8083 38.5353 59.3344 39.2188 57.934 39.8183 56.4224 40.4683 56.1373 41.3257 56.6153 42.8645 56.6782 43.0637 56.7222 43.2796 56.827 43.4536 58.1206 45.5858 57.8606 47.7074 57.0409 49.9611 54.6782 56.4665 54.3113 63.2402 54.6195 70.0831 54.7893 73.884 54.9235 77.687 55.1352 81.4837 55.2211 83.0141 55.4895 84.532 55.6509 86.0582 55.7117 86.6452 55.7788 87.2511 55.7075 87.8297 55.5922 88.7438 55.349 89.6474 54.2735 89.9199 52.98 90.247 51.894 89.9744 51.3301 88.9304 50.7934 87.9387 50.3594 86.8318 50.1561 85.727 49.3531 81.3579 49.0282 76.9406 49.0764 72.4961 49.0848 72.19 49.0554 71.8839 49.0365 71.4332ZM42.5542 50.9255C42.5542 50.0596 42.6088 49.3594 42.5438 48.6697 42.3299 46.3614 41.3593 45.3782 39.0741 45.1182 38.3466 45.0365 37.6108 45.0155 36.8791 44.9673 32.4409 44.6759 29.8915 47.0596 30.141 51.4706 34.2354 51.2903 38.3319 51.1121 42.5542 50.9255ZM30.6358 56.066C30.5016 58.586 31.8937 60.5923 34.2291 61.0095 35.6128 61.2569 37.0594 61.2653 38.4724 61.215 41.5249 61.106 43.3404 58.651 42.6842 55.5566 38.6234 54.6425 34.6338 55.544 30.6358 56.066Z" fill="#4874CB" fill-rule="nonzero" fill-opacity="1" transform="matrix(1 0 0 1.00186 913 567)"/><path d="M71.1145 64.0473C72.8693 63.9006 74.3724 63.8607 75.8421 63.6112 76.4291 63.5127 76.9826 63.0096 77.4689 62.5924 77.9679 62.1668 78.3138 61.5588 78.8233 61.1479 79.5046 60.5965 80.2698 60.1227 81.2112 60.6405 82.0414 61.0976 82.75 62.2569 82.4879 63.2066 81.534 66.6637 80.5109 70.1019 79.4166 73.5171 79.3075 73.8588 78.5381 74.1586 78.0601 74.1796 76.4605 74.255 74.8525 74.1733 73.2508 74.1942 71.6072 74.2152 71.5464 74.3012 71.9112 75.8651 72.4206 78.035 73.0055 80.1902 73.45 82.3726 73.6345 83.2783 73.5863 84.2426 73.5569 85.1777 73.5318 85.966 73.0202 86.3517 72.2403 86.3601 70.8294 86.3727 69.8902 85.6242 69.2046 84.4691 67.8671 82.2154 67.2214 79.7226 66.6993 77.188 66.2507 75.0056 66.0452 74.863 63.9131 75.6094 62.997 75.9301 62.1374 76.4102 61.2422 76.796 60.5399 77.1 59.8376 77.4186 59.1101 77.6471 57.848 78.0413 57.0744 77.775 56.5713 76.8672 55.9801 75.8022 56.0765 74.5297 57.0011 73.8169 57.7013 73.2781 58.5462 72.8588 59.391 72.5904 61.4707 71.928 63.5882 71.3829 65.7245 70.7812 65.7245 69.9887 65.7245 69.0726 65.7245 67.8629 64.3618 68.2382 63.1668 68.5401 61.9886 68.9007 60.7579 69.278 59.5546 69.7455 58.3218 70.1145 57.4392 70.3787 56.5797 70.4269 56.131 69.3409 55.6782 68.2424 55.9633 67.039 56.8627 66.4583 58.4916 65.4058 60.3722 65.4289 62.2024 65.2088 63.3722 65.0683 64.5358 64.8398 65.6868 64.5777 65.9278 64.5232 66.0956 64.1458 66.2968 63.9173 66.0138 63.7957 65.7287 63.5672 65.4457 63.5693 64.4016 63.5798 63.3555 63.7286 62.3135 63.7035 61.4456 63.6825 60.6342 63.3911 60.412 62.389 60.1625 61.2716 60.8145 60.4917 62.0934 60.4162 65.192 60.2317 68.2948 60.0787 71.3955 59.9152 71.5338 59.9068 71.6764 59.8963 71.8147 59.9152 72.2906 59.9822 72.7645 60.0619 73.2403 60.1374 73.1418 60.7013 73.1837 61.347 72.9133 61.8104 72.4793 62.5441 71.842 63.1605 71.1145 64.0473ZM71.1145 70.6135C72.4458 70.4982 73.668 70.452 74.863 70.2487 75.2383 70.1837 75.7037 69.7497 75.8379 69.3807 76.0622 68.7602 76.0538 68.0537 76.1712 67.1732 74.3494 67.3451 72.7393 67.4981 71.1145 67.6533 71.1145 68.6889 71.1145 69.5862 71.1145 70.6135Z" fill="#4874CB" fill-rule="nonzero" fill-opacity="1" transform="matrix(1 0 0 1.00186 913 567)"/><path d="M69.1816 59.2967C66.9866 59.2967 64.7895 59.2548 62.5945 59.3093 60.6384 59.3596 59.2841 58.6237 58.456 56.9046 57.5545 55.0325 57.8124 53.4999 59.0849 51.9842 60.3743 50.4496 62.0808 50.0156 63.932 49.9296 67.8335 49.7514 71.7372 49.5397 75.6387 49.5145 77.5067 49.502 79.3809 49.8416 81.2426 50.1058 81.7206 50.1728 82.2594 50.4601 82.5885 50.8144 83.9366 52.2693 84.2448 54.0429 83.6326 55.8711 83.0477 57.6153 81.6766 58.5692 79.838 58.6782 76.2886 58.8921 72.7372 59.043 69.1858 59.2191 69.1858 59.2485 69.1837 59.2736 69.1816 59.2967ZM78.9637 54.2987C78.9218 54.1666 78.8778 54.0345 78.8358 53.9004 78.0203 53.8228 77.2027 53.6593 76.3893 53.6802 72.2047 53.7893 68.0222 53.9255 63.8398 54.1079 63.1898 54.1352 62.0661 53.8941 62.0976 54.9025 62.129 55.9549 63.2884 55.7096 63.9572 55.6803 68.5212 55.4748 73.081 55.2044 77.6388 54.9046 78.0895 54.8752 78.5214 54.5104 78.9637 54.2987Z" fill="#4874CB" fill-rule="nonzero" fill-opacity="1" transform="matrix(1 0 0 1.00186 913 567)"/><path d="M69.7896 48.7766C66.7958 48.6613 63.7999 48.59 60.8125 48.3971 60.2233 48.3594 59.5273 47.982 59.1164 47.5418 57.3931 45.6969 57.7998 42.1999 59.9822 40.9672 61.0892 40.3425 62.4582 39.9756 63.7328 39.8938 67.6952 39.6401 71.6701 39.55 75.6429 39.4557 77.5004 39.4116 79.3222 39.6947 81.0309 40.5039 82.469 41.1852 83.186 42.3069 83.2238 43.8918 83.2636 45.5522 82.8233 47.0114 81.1357 47.613 79.8086 48.0847 78.4019 48.4894 77.0077 48.5795 74.6115 48.7347 72.1984 48.6235 69.7916 48.6235 69.7937 48.6718 69.7916 48.7242 69.7896 48.7766ZM78.7771 44.7828C78.6702 43.5333 78.2111 43.1475 77.2446 43.1706 74.492 43.2314 71.7351 43.1874 68.9824 43.244 67.0683 43.2838 65.1563 43.3949 63.2465 43.5249 62.5504 43.5731 61.9508 44.0071 62.1668 44.7367 62.2653 45.07 62.9949 45.4159 63.4393 45.4138 67.2717 45.4034 71.104 45.3468 74.9343 45.2314 76.1985 45.1958 77.4543 44.9442 78.7771 44.7828Z" fill="#4874CB" fill-rule="nonzero" fill-opacity="1" transform="matrix(1 0 0 1.00186 913 567)"/></g></g></g></g></g></svg>